<?xml version="1.0" encoding="UTF-8" standalone="no"?>
<!-- Created with Inkscape (http://www.inkscape.org/) -->

<svg
   xmlns:dc="http://purl.org/dc/elements/1.1/"
   xmlns:cc="http://creativecommons.org/ns#"
   xmlns:rdf="http://www.w3.org/1999/02/22-rdf-syntax-ns#"
   xmlns:svg="http://www.w3.org/2000/svg"
   xmlns="http://www.w3.org/2000/svg"
   xmlns:sodipodi="http://sodipodi.sourceforge.net/DTD/sodipodi-0.dtd"
   xmlns:inkscape="http://www.inkscape.org/namespaces/inkscape"
   id="svg2"
   version="1.1"
   inkscape:version="0.91 r13725"
   xml:space="preserve"
   width="462.91376"
   height="110.42236"
   viewBox="0 0 462.91376 110.42236"
   sodipodi:docname="Sticks and stones-table1.svg"><metadata
     id="metadata8"><rdf:RDF><cc:Work
         rdf:about=""><dc:format>image/svg+xml</dc:format><dc:type
           rdf:resource="http://purl.org/dc/dcmitype/StillImage" /><dc:title></dc:title></cc:Work></rdf:RDF></metadata><defs
     id="defs6" /><sodipodi:namedview
     pagecolor="#ffffff"
     bordercolor="#666666"
     borderopacity="1"
     objecttolerance="10"
     gridtolerance="10"
     guidetolerance="10"
     inkscape:pageopacity="0"
     inkscape:pageshadow="2"
     inkscape:window-width="2048"
     inkscape:window-height="1128"
     id="namedview4"
     showgrid="false"
     fit-margin-top="10"
     fit-margin-left="10"
     fit-margin-right="10"
     fit-margin-bottom="10"
     inkscape:zoom="1.5161629"
     inkscape:cx="220.24833"
     inkscape:cy="3.7257786"
     inkscape:window-x="0"
     inkscape:window-y="24"
     inkscape:window-maximized="1"
     inkscape:current-layer="g10" /><g
     id="g10"
     inkscape:groupmode="layer"
     inkscape:label="Sticks and stones-comparing Twitter campaigning strategies"
     transform="matrix(1.25,0,0,-1.25,-75.039375,806.34736)"><g
       id="g130"
       transform="translate(68.0315,623.99)"><path
         d="M 0,0 354.331,0"
         style="fill:none;stroke:#231f20;stroke-width:0.5;stroke-linecap:butt;stroke-linejoin:miter;stroke-miterlimit:10;stroke-dasharray:none;stroke-opacity:1"
         id="path132"
         inkscape:connector-curvature="0" /></g><text
       transform="matrix(1,0,0,-1,68.0315,630.24)"
       style="font-variant:normal;font-weight:bold;font-stretch:normal;font-size:9px;font-family:'Gill Sans Std';-inkscape-font-specification:GillSansStd-Bold;writing-mode:lr-tb;fill:#231f20;fill-opacity:1;fill-rule:nonzero;stroke:none"
       id="text134"><tspan
         x="0 6.4710002 11.25 16.497 18.936001 23.903999 26.406 31.374001"
         y="0"
         sodipodi:role="line"
         id="tspan136">Table 1.</tspan></text>
<text
       transform="matrix(1,0,0,-1,106.3445,630.24)"
       style="font-variant:normal;font-weight:normal;font-stretch:normal;font-size:9px;font-family:'Gill Sans Std';-inkscape-font-specification:GillSansStd;writing-mode:lr-tb;fill:#231f20;fill-opacity:1;fill-rule:nonzero;stroke:none"
       id="text138"><tspan
         x="0 5.4359999 11.907 13.878 16.875 19.872 24.183001 27.747 30.249001 32.499001 37.466999 39.438 41.409 46.376999 52.848 57.159 60.723 63.224998 67.068001 70.632004 75.599998 82.070999 85.068001 89.568001"
         y="0"
         sodipodi:role="line"
         id="tspan140">Twitter follower growth.</tspan></text>
<g
       id="g142"
       transform="translate(68.0315,605.74)"><path
         d="M 0,0 41.969,0"
         style="fill:none;stroke:#231f20;stroke-width:0.5;stroke-linecap:butt;stroke-linejoin:miter;stroke-miterlimit:10;stroke-dasharray:none;stroke-opacity:1"
         id="path144"
         inkscape:connector-curvature="0" /></g><g
       id="g146"
       transform="translate(110,605.74)"><path
         d="M 0,0 91.007,0"
         style="fill:none;stroke:#231f20;stroke-width:0.5;stroke-linecap:butt;stroke-linejoin:miter;stroke-miterlimit:10;stroke-dasharray:none;stroke-opacity:1"
         id="path148"
         inkscape:connector-curvature="0" /></g><g
       id="g150"
       transform="translate(201.0073,605.74)"><path
         d="M 0,0 76.341,0"
         style="fill:none;stroke:#231f20;stroke-width:0.5;stroke-linecap:butt;stroke-linejoin:miter;stroke-miterlimit:10;stroke-dasharray:none;stroke-opacity:1"
         id="path152"
         inkscape:connector-curvature="0" /></g><g
       id="g154"
       transform="translate(277.3479,605.74)"><path
         d="M 0,0 71.007,0"
         style="fill:none;stroke:#231f20;stroke-width:0.5;stroke-linecap:butt;stroke-linejoin:miter;stroke-miterlimit:10;stroke-dasharray:none;stroke-opacity:1"
         id="path156"
         inkscape:connector-curvature="0" /></g><g
       id="g158"
       transform="translate(348.3552,605.74)"><path
         d="M 0,0 74.007,0"
         style="fill:none;stroke:#231f20;stroke-width:0.5;stroke-linecap:butt;stroke-linejoin:miter;stroke-miterlimit:10;stroke-dasharray:none;stroke-opacity:1"
         id="path160"
         inkscape:connector-curvature="0" /></g><g
       id="g162"
       transform="translate(68.0315,564.99)"><path
         d="M 0,0 41.969,0"
         style="fill:none;stroke:#231f20;stroke-width:0.5;stroke-linecap:butt;stroke-linejoin:miter;stroke-miterlimit:10;stroke-dasharray:none;stroke-opacity:1"
         id="path164"
         inkscape:connector-curvature="0" /></g><g
       id="g166"
       transform="translate(110,564.99)"><path
         d="M 0,0 91.007,0"
         style="fill:none;stroke:#231f20;stroke-width:0.5;stroke-linecap:butt;stroke-linejoin:miter;stroke-miterlimit:10;stroke-dasharray:none;stroke-opacity:1"
         id="path168"
         inkscape:connector-curvature="0" /></g><g
       id="g170"
       transform="translate(201.0073,564.99)"><path
         d="M 0,0 76.341,0"
         style="fill:none;stroke:#231f20;stroke-width:0.5;stroke-linecap:butt;stroke-linejoin:miter;stroke-miterlimit:10;stroke-dasharray:none;stroke-opacity:1"
         id="path172"
         inkscape:connector-curvature="0" /></g><g
       id="g174"
       transform="translate(277.3479,564.99)"><path
         d="M 0,0 71.007,0"
         style="fill:none;stroke:#231f20;stroke-width:0.5;stroke-linecap:butt;stroke-linejoin:miter;stroke-miterlimit:10;stroke-dasharray:none;stroke-opacity:1"
         id="path176"
         inkscape:connector-curvature="0" /></g><g
       id="g178"
       transform="translate(348.3552,564.99)"><path
         d="M 0,0 74.007,0"
         style="fill:none;stroke:#231f20;stroke-width:0.5;stroke-linecap:butt;stroke-linejoin:miter;stroke-miterlimit:10;stroke-dasharray:none;stroke-opacity:1"
         id="path180"
         inkscape:connector-curvature="0" /></g><text
       transform="matrix(1,0,0,-1,156.0073,611.74)"
       style="font-variant:normal;font-weight:normal;font-stretch:normal;font-size:9px;font-family:'Gill Sans Std';-inkscape-font-specification:GillSansStd;writing-mode:lr-tb;fill:#231f20;fill-opacity:1;fill-rule:nonzero;stroke:none"
       id="text182"><tspan
         x="0 4.5 9 11.502 15.723 20.034 24.534 28.098 32.598 36.441002 40.005001 91.008003 95.508003 100.008 102.51 108.513 113.013 116.577 118.548 167.34599 171.84599 174.34801 176.59801 181.09801 185.59801 238.356 242.856 247.356 249.858 252.108 256.608 261.108"
         y="0"
         sodipodi:role="line"
         id="tspan184">11 February13 April1 June22 June</tspan><tspan
         x="-87.974998 -83.852997 -80.856003 -77.292 -72.323997 -67.823997 -63.980999 -59.669998 -56.105999 -53.604 -51.354 0 4.5 9 10.971 15.471 19.971001 91.008003 95.508003 100.008 101.979 106.479 110.979 167.34599 171.84599 176.34599 178.317 182.817 187.317 238.356 242.856 247.356 249.327 253.827 258.327"
         y="17.747999"
         sodipodi:role="line"
         id="tspan186">Stronger In10,49622,44732,48748,314</tspan><tspan
         x="-87.974998 -82.539001 -77.570999 -74.573997 -70.263 -67.761002 -63.351002 -59.040001 -55.196999 -51.255001 0 4.5 9 10.971 15.471 19.971001 91.008003 95.508003 100.008 101.979 106.479 110.979 167.34599 171.84599 176.34599 178.317 182.817 187.317 238.356 242.856 247.356 249.327 253.827 258.327"
         y="29.25"
         sodipodi:role="line"
         id="tspan188">Vote Leave17,45533,81349,14068,791</tspan><tspan
         x="-87.974998 -83.565002 -79.253998 -75.411003 -71.469002 -67.157997 -65.186996 -60.687 0 4.5 9 10.971 15.471 19.971001 91.008003 95.508003 100.008 101.979 106.479 110.979 167.34599 171.84599 176.34599 178.317 182.817 187.317 238.356 242.856 247.356 249.327 253.827 258.327"
         y="40.751999"
         sodipodi:role="line"
         id="tspan190">Leave.EU61,54684,06589,46694,437</tspan></text>
</g></svg>