<?xml version="1.0" encoding="UTF-8" standalone="no"?>
<!-- Created with Inkscape (http://www.inkscape.org/) -->

<svg
   xmlns:dc="http://purl.org/dc/elements/1.1/"
   xmlns:cc="http://creativecommons.org/ns#"
   xmlns:rdf="http://www.w3.org/1999/02/22-rdf-syntax-ns#"
   xmlns:svg="http://www.w3.org/2000/svg"
   xmlns="http://www.w3.org/2000/svg"
   xmlns:sodipodi="http://sodipodi.sourceforge.net/DTD/sodipodi-0.dtd"
   xmlns:inkscape="http://www.inkscape.org/namespaces/inkscape"
   id="svg2"
   version="1.1"
   inkscape:version="0.91 r13725"
   xml:space="preserve"
   width="463.2045"
   height="377.92236"
   viewBox="0 0 463.2045 377.92236"
   sodipodi:docname="Sticks and stones-table5.svg"><metadata
     id="metadata8"><rdf:RDF><cc:Work
         rdf:about=""><dc:format>image/svg+xml</dc:format><dc:type
           rdf:resource="http://purl.org/dc/dcmitype/StillImage" /><dc:title></dc:title></cc:Work></rdf:RDF></metadata><defs
     id="defs6" /><sodipodi:namedview
     pagecolor="#ffffff"
     bordercolor="#666666"
     borderopacity="1"
     objecttolerance="10"
     gridtolerance="10"
     guidetolerance="10"
     inkscape:pageopacity="0"
     inkscape:pageshadow="2"
     inkscape:window-width="2048"
     inkscape:window-height="1128"
     id="namedview4"
     showgrid="false"
     fit-margin-top="10"
     fit-margin-left="10"
     fit-margin-right="10"
     fit-margin-bottom="10"
     inkscape:zoom="1.5161629"
     inkscape:cx="326.06801"
     inkscape:cy="112.93144"
     inkscape:window-x="0"
     inkscape:window-y="24"
     inkscape:window-maximized="1"
     inkscape:current-layer="g10" /><g
     id="g10"
     inkscape:groupmode="layer"
     inkscape:label="Sticks and stones-comparing Twitter campaigning strategies"
     transform="matrix(1.25,0,0,-1.25,-74.749261,806.34736)"><g
       id="g72"
       transform="translate(68.0315,623.99)"><path
         d="M 0,0 354.331,0"
         style="fill:none;stroke:#231f20;stroke-width:0.5;stroke-linecap:butt;stroke-linejoin:miter;stroke-miterlimit:10;stroke-dasharray:none;stroke-opacity:1"
         id="path74"
         inkscape:connector-curvature="0" /></g><text
       transform="matrix(1,0,0,-1,68.0315,630.24)"
       style="font-variant:normal;font-weight:bold;font-stretch:normal;font-size:9px;font-family:'Gill Sans Std';-inkscape-font-specification:GillSansStd-Bold;writing-mode:lr-tb;fill:#231f20;fill-opacity:1;fill-rule:nonzero;stroke:none"
       id="text76"><tspan
         x="0 6.4710002 11.25 16.497 18.936001 23.903999 26.406 31.374001"
         y="0"
         sodipodi:role="line"
         id="tspan78">Table 5.</tspan></text>
<text
       transform="matrix(1,0,0,-1,106.3445,630.24)"
       style="font-variant:normal;font-weight:normal;font-stretch:normal;font-size:9px;font-family:'Gill Sans Std';-inkscape-font-specification:GillSansStd;writing-mode:lr-tb;fill:#231f20;fill-opacity:1;fill-rule:nonzero;stroke:none"
       id="text80"><tspan
         x="0 5.4359999 11.907 16.218 20.718 23.715 27.657 30.159 37.098 42.066002 45.530998 48.528 51.029999 53.279999 56.844002 61.154999 65.654999 70.154999 74.466003 78.966003 81.962997 84.464996 90.935997 95.903999 99.468002 104.058 106.965 110.43 113.427 117.738 124.677 128.142 130.11301 132.61501 137.11501 141.05701 143.55901 147.40199 150.966 155.93401 160.43401 164.93401"
         y="0"
         sodipodi:role="line"
         id="tspan82">Twenty most frequent word-stems, by group.</tspan></text>
<g
       id="g84"
       transform="translate(68.0315,587.24)"><path
         d="M 0,0 67.719,0"
         style="fill:none;stroke:#231f20;stroke-width:0.5;stroke-linecap:butt;stroke-linejoin:miter;stroke-miterlimit:10;stroke-dasharray:none;stroke-opacity:1"
         id="path86"
         inkscape:connector-curvature="0" /></g><g
       id="g88"
       transform="translate(135.75,587.24)"><path
         d="M 0,0 55.973,0"
         style="fill:none;stroke:#231f20;stroke-width:0.5;stroke-linecap:butt;stroke-linejoin:miter;stroke-miterlimit:10;stroke-dasharray:none;stroke-opacity:1"
         id="path90"
         inkscape:connector-curvature="0" /></g><g
       id="g92"
       transform="translate(191.7225,587.24)"><path
         d="M 0,0 60.472,0"
         style="fill:none;stroke:#231f20;stroke-width:0.5;stroke-linecap:butt;stroke-linejoin:miter;stroke-miterlimit:10;stroke-dasharray:none;stroke-opacity:1"
         id="path94"
         inkscape:connector-curvature="0" /></g><g
       id="g96"
       transform="translate(252.195,587.24)"><path
         d="M 0,0 56.722,0"
         style="fill:none;stroke:#231f20;stroke-width:0.5;stroke-linecap:butt;stroke-linejoin:miter;stroke-miterlimit:10;stroke-dasharray:none;stroke-opacity:1"
         id="path98"
         inkscape:connector-curvature="0" /></g><g
       id="g100"
       transform="translate(308.9175,587.24)"><path
         d="M 0,0 55.223,0"
         style="fill:none;stroke:#231f20;stroke-width:0.5;stroke-linecap:butt;stroke-linejoin:miter;stroke-miterlimit:10;stroke-dasharray:none;stroke-opacity:1"
         id="path102"
         inkscape:connector-curvature="0" /></g><g
       id="g104"
       transform="translate(364.14,587.24)"><path
         d="M 0,0 58.223,0"
         style="fill:none;stroke:#231f20;stroke-width:0.5;stroke-linecap:butt;stroke-linejoin:miter;stroke-miterlimit:10;stroke-dasharray:none;stroke-opacity:1"
         id="path106"
         inkscape:connector-curvature="0" /></g><g
       id="g108"
       transform="translate(68.0315,350.99)"><path
         d="M 0,0 67.719,0"
         style="fill:none;stroke:#231f20;stroke-width:0.5;stroke-linecap:butt;stroke-linejoin:miter;stroke-miterlimit:10;stroke-dasharray:none;stroke-opacity:1"
         id="path110"
         inkscape:connector-curvature="0" /></g><g
       id="g112"
       transform="translate(135.75,350.99)"><path
         d="M 0,0 55.973,0"
         style="fill:none;stroke:#231f20;stroke-width:0.5;stroke-linecap:butt;stroke-linejoin:miter;stroke-miterlimit:10;stroke-dasharray:none;stroke-opacity:1"
         id="path114"
         inkscape:connector-curvature="0" /></g><g
       id="g116"
       transform="translate(191.7225,350.99)"><path
         d="M 0,0 60.472,0"
         style="fill:none;stroke:#231f20;stroke-width:0.5;stroke-linecap:butt;stroke-linejoin:miter;stroke-miterlimit:10;stroke-dasharray:none;stroke-opacity:1"
         id="path118"
         inkscape:connector-curvature="0" /></g><g
       id="g120"
       transform="translate(252.195,350.99)"><path
         d="M 0,0 56.722,0"
         style="fill:none;stroke:#231f20;stroke-width:0.5;stroke-linecap:butt;stroke-linejoin:miter;stroke-miterlimit:10;stroke-dasharray:none;stroke-opacity:1"
         id="path122"
         inkscape:connector-curvature="0" /></g><g
       id="g124"
       transform="translate(308.9175,350.99)"><path
         d="M 0,0 55.223,0"
         style="fill:none;stroke:#231f20;stroke-width:0.5;stroke-linecap:butt;stroke-linejoin:miter;stroke-miterlimit:10;stroke-dasharray:none;stroke-opacity:1"
         id="path126"
         inkscape:connector-curvature="0" /></g><g
       id="g128"
       transform="translate(364.14,350.99)"><path
         d="M 0,0 58.223,0"
         style="fill:none;stroke:#231f20;stroke-width:0.5;stroke-linecap:butt;stroke-linejoin:miter;stroke-miterlimit:10;stroke-dasharray:none;stroke-opacity:1"
         id="path130"
         inkscape:connector-curvature="0" /></g><g
       id="g132"
       transform="translate(68.0315,605.49)"><path
         d="M 0,0 123.691,0"
         style="fill:none;stroke:#231f20;stroke-width:0.5;stroke-linecap:butt;stroke-linejoin:miter;stroke-miterlimit:10;stroke-dasharray:none;stroke-opacity:1"
         id="path134"
         inkscape:connector-curvature="0" /></g><text
       transform="matrix(1,0,0,-1,68.0315,611.74)"
       style="font-variant:normal;font-weight:normal;font-stretch:normal;font-size:9px;font-family:'Gill Sans Std';-inkscape-font-specification:GillSansStd;writing-mode:lr-tb;fill:#231f20;fill-opacity:1;fill-rule:nonzero;stroke:none"
       id="text136"><tspan
         x="0 4.1220002 7.119 10.683 15.651 20.150999 23.993999 28.305 31.868999 34.370998 36.620998"
         y="0"
         sodipodi:role="line"
         id="tspan138">Stronger In</tspan></text>
<g
       id="g140"
       transform="translate(202.695,605.49)"><path
         d="M 0,0 106.222,0"
         style="fill:none;stroke:#231f20;stroke-width:0.5;stroke-linecap:butt;stroke-linejoin:miter;stroke-miterlimit:10;stroke-dasharray:none;stroke-opacity:1"
         id="path142"
         inkscape:connector-curvature="0" /></g><text
       transform="matrix(1,0,0,-1,202.695,611.74)"
       style="font-variant:normal;font-weight:normal;font-stretch:normal;font-size:9px;font-family:'Gill Sans Std';-inkscape-font-specification:GillSansStd;writing-mode:lr-tb;fill:#231f20;fill-opacity:1;fill-rule:nonzero;stroke:none"
       id="text144"><tspan
         x="0 5.4359999 10.404 13.401 17.712 20.214001 24.624001 28.934999 32.778 36.720001"
         y="0"
         sodipodi:role="line"
         id="tspan146">Vote Leave</tspan></text>
<g
       id="g148"
       transform="translate(319.89,605.49)"><path
         d="M 0,0 102.473,0"
         style="fill:none;stroke:#231f20;stroke-width:0.5;stroke-linecap:butt;stroke-linejoin:miter;stroke-miterlimit:10;stroke-dasharray:none;stroke-opacity:1"
         id="path150"
         inkscape:connector-curvature="0" /></g><text
       transform="matrix(1,0,0,-1,319.89,611.74)"
       style="font-variant:normal;font-weight:normal;font-stretch:normal;font-size:9px;font-family:'Gill Sans Std';-inkscape-font-specification:GillSansStd;writing-mode:lr-tb;fill:#231f20;fill-opacity:1;fill-rule:nonzero;stroke:none"
       id="text152"><tspan
         x="0 4.4099998 8.7209997 12.564 16.506001 20.816999 22.788 27.288"
         y="0"
         sodipodi:role="line"
         id="tspan154">Leave.EU</tspan><tspan
         x="-251.856 -242.478 -237.50999 -233.946 -173.16901 -163.791 -159.48 -157.509 -153.666 -149.166 -146.16901 -141.858 -137.26801 -134.76601 -117.198 -107.82 -102.852 -99.288002 -56.727001 -47.348999 -43.037998 -41.067001 -37.223999 -32.723999 -29.726999 -25.416 -20.826 -18.323999 -0.0089999996 9.3690004 14.337 17.900999 55.215 64.593002 68.903999 70.875 74.718002 79.218002 82.214996 86.526001 91.115997 93.617996"
         y="18.504"
         sodipodi:role="line"
         id="tspan156">WordWeighted %WordWeighted %WordWeighted %</tspan><tspan
         x="-251.86501 -249.894 -245.58299 -241.74001 -237.798 -235.827 -231.327 -173.17799 -168.67799 -166.707 -162.207 -117.207 -108.117 -104.175 -99.207001 -96.209999 -91.899002 -89.928001 -85.616997 -81.774002 -77.832001 -56.736 -52.236 -50.264999 -45.764999 -0.017999999 5.0489998 8.6129999 12.924 17.424 19.395 55.206001 59.706001 61.676998 66.177002"
         y="36.251999"
         sodipodi:role="line"
         id="tspan158">leaving2.26@voteleave2.99Brexit1.51</tspan><tspan
         x="-251.87399 -242.784 -239.319 -236.32201 -232.758 -227.78999 -223.28999 -219.44701 -215.136 -211.57201 -209.601 -173.187 -168.687 -166.716 -162.216 -117.216 -113.274 -108.306 -105.309 -103.338 -98.837997 -56.744999 -52.244999 -50.273998 -45.773998 -0.027000001 9.0629997 11.034 15.345 19.188 23.129999 27.441 31.752001 55.196999 59.696999 61.667999 66.167999"
         y="47.754002"
         sodipodi:role="line"
         id="tspan160">@strongerin2.18voting1.56@leaveeu1.44</tspan><tspan
         x="-251.883 -247.383 -242.883 -239.319 -234.351 -229.851 -173.196 -168.696 -166.72501 -162.22501 -117.225 -111.969 -108.972 -105.129 -100.818 -96.507004 -92.565002 -87.597 -83.097 -80.099998 -76.536003 -71.568001 -56.754002 -52.254002 -50.283001 -45.783001 -0.035999998 1.9349999 6.2459998 10.089 14.031 16.002001 20.502001 55.188 59.688 61.659 66.158997"
         y="59.256001"
         sodipodi:role="line"
         id="tspan162">Europe1.49#takecontrol1.23leaving1.07</tspan><tspan
         x="-251.892 -247.95 -242.98199 -239.985 -238.01401 -233.51401 -173.205 -168.705 -166.73399 -162.23399 -117.234 -115.263 -110.952 -107.109 -103.167 -101.196 -96.695999 -56.763 -52.263 -50.292 -45.792 -0.045000002 3.8970001 8.8649998 11.862 13.833 18.333 55.179001 59.679001 61.650002 66.150002"
         y="70.758003"
         sodipodi:role="line"
         id="tspan164">voting1.15leaving1.23voting0.78</tspan><tspan
         x="-251.901 -247.959 -244.116 -237.177 -232.677 -228.834 -226.86301 -223.02 -173.214 -168.714 -166.743 -162.243 -117.243 -110.583 -105.615 -101.673 -56.771999 -52.271999 -50.300999 -45.800999 -0.054000001 3.789 7.3530002 11.196 14.661 18.125999 21.690001 26.658001 31.625999 34.623001 55.169998 59.669998 61.640999 66.140999"
         y="82.260002"
         sodipodi:role="line"
         id="tspan166">campaign1.09Gove0.68grassroots0.73</tspan><tspan
         x="-251.91 -248.34599 -244.035 -237.09599 -233.25301 -231.282 -173.22301 -168.72301 -166.752 -162.252 -117.252 -113.31 -109.467 -102.528 -98.028 -94.184998 -92.213997 -88.371002 -56.780998 -52.280998 -50.310001 -45.810001 -0.063000001 5.1929998 9.5039997 14.004 17.568001 21.879 55.160999 59.660999 61.632 66.132004"
         y="93.762001"
         sodipodi:role="line"
         id="tspan168">remain0.91campaign0.65#euref0.53</tspan><tspan
         x="-251.91901 -246.85201 -243.28799 -241.317 -238.32001 -234.47701 -232.506 -173.23199 -168.73199 -166.761 -117.261 -113.319 -108.351 -103.851 -100.854 -97.290001 -92.321999 -56.790001 -52.290001 -50.319 -45.819 -0.071999997 3.4920001 7.803 14.742 18.584999 20.556 55.152 59.652 61.623001 66.123001"
         y="105.264"
         sodipodi:role="line"
         id="tspan170">Britain0.8control0.59remain0.46</tspan><tspan
         x="-251.92799 -249.957 -244.989 -240.489 -173.241 -168.741 -166.77 -162.27 -117.27 -112.014 -110.043 -107.046 -103.104 -98.792999 -94.292999 -90.728996 -86.417999 -56.799 -52.299 -50.327999 -45.827999 -0.081 2.9159999 6.48 10.323 14.913 16.884001 21.384001 55.143002 59.643002 61.613998 66.113998"
         y="116.766"
         sodipodi:role="line"
         id="tspan172">jobs0.79#itveuref0.58trading0.41</tspan><tspan
         x="-251.937 -246.681 -242.181 -237.681 -233.739 -229.149 -224.838 -220.338 -216.495 -213.498 -173.25 -168.75 -166.77901 -162.27901 -117.279 -115.308 -108.369 -101.43 -99.459 -95.615997 -92.052002 -88.209 -85.211998 -83.240997 -78.273003 -56.807999 -52.307999 -50.337002 -45.837002 -0.090000004 3.852 7.6950002 14.634 19.134001 22.976999 24.948 28.791 55.133999 59.633999 61.605 66.105003"
         y="128.26801"
         sodipodi:role="line"
         id="tspan174">#bbcdebate0.55immigration0.57campaign0.41</tspan><tspan
         x="-251.946 -246.879 -243.315 -239.004 -234.504 -232.533 -173.259 -168.759 -166.78799 -162.28799 -117.288 -112.032 -107.532 -103.032 -99.089996 -94.589996 -56.817001 -52.317001 -50.346001 -45.846001 -0.098999999 4.1220002 7.9650002 11.529 15.372 19.215 55.125 59.625 61.596001 66.096001"
         y="139.77"
         sodipodi:role="line"
         id="tspan176">Brexit0.54#bbcqt0.56Farage0.38</tspan><tspan
         x="-251.955 -246.69901 -244.728 -241.731 -237.789 -233.478 -228.978 -225.414 -221.103 -173.26801 -168.76801 -166.797 -162.297 -117.297 -110.925 -107.082 -100.143 -95.832001 -92.267998 -87.300003 -56.826 -52.326 -50.355 -45.855 -0.108 4.9590001 8.5229998 10.494 13.491 17.334 19.305 55.116001 59.616001 61.587002 66.086998"
         y="151.272"
         sodipodi:role="line"
         id="tspan178">#itveuref0.53Cameron0.55Britain0.37</tspan><tspan
         x="-251.964 -242.87399 -239.409 -236.412 -232.84801 -227.88 -223.38 -219.537 -215.226 -211.662 -209.69099 -205.19099 -200.69099 -197.127 -192.81599 -189.351 -173.27699 -168.77699 -166.806 -162.306 -117.306 -112.05 -109.8 -105.3 -100.332 -96.767998 -91.800003 -87.300003 -56.834999 -52.334999 -50.363998 -0.117 6.9120002 8.8830004 12.726 17.037001 55.106998 59.606998 61.577999 66.078003"
         y="162.774"
         sodipodi:role="line"
         id="tspan180">@strongerinpress0.48#Inorout0.5Nigel0.37</tspan><tspan
         x="-251.97301 -247.47301 -243.162 -240.16499 -237.168 -232.85699 -173.286 -168.786 -166.815 -162.315 -117.315 -112.059 -107.559 -103.059 -99.116997 -94.527 -90.216003 -85.716003 -81.873001 -78.875999 -56.844002 -52.344002 -50.373001 -45.873001 -0.126 6.2459998 10.089 17.028 21.339001 24.903 29.871 55.098 59.598 61.569 66.069"
         y="174.276"
         sodipodi:role="line"
         id="tspan182">better0.44#bbcdebate0.48Cameron0.36</tspan><tspan
         x="-251.98199 -248.418 -246.44701 -242.604 -238.104 -235.10699 -173.295 -168.795 -166.82401 -162.32401 -117.324 -113.76 -109.449 -102.51 -98.667 -96.695999 -56.853001 -52.353001 -50.382 -45.882 -0.13500001 4.3649998 8.2080002 12.15 55.089001 59.589001 61.560001 66.059998"
         y="185.778"
         sodipodi:role="line"
         id="tspan184">rights0.44remain0.45back0.34</tspan><tspan
         x="-251.991 -247.67999 -243.73801 -238.77 -234.27 -229.302 -222.36301 -173.304 -168.804 -166.83299 -162.33299 -117.333 -112.266 -108.702 -104.391 -99.890999 -97.919998 -56.862 -52.362 -50.390999 -45.890999 -0.14399999 4.3559999 8.6669998 13.635 18.135 20.106001 55.080002 59.580002 61.550999 66.051003"
         y="197.28"
         sodipodi:role="line"
         id="tspan186">economy0.42Brexit0.43people0.33</tspan><tspan
         x="-252 -245.061 -240.75 -236.907 -232.407 -173.313 -168.813 -166.842 -162.342 -117.342 -115.371 -111.06 -108.063 -56.870998 -52.370998 -50.400002 -45.900002 -0.153 6.507 11.475 13.446 17.945999 55.070999 59.570999 61.542 66.042"
         y="208.782"
         sodipodi:role="line"
         id="tspan188">means0.41lets0.42Going0.33</tspan><tspan
         x="-252.009 -249.01199 -244.04401 -239.45399 -235.61099 -173.32201 -168.82201 -166.851 -162.351 -117.351 -112.284 -107.316 -103.752 -101.781 -56.880001 -52.380001 -50.409 -45.909 -0.162 4.3379998 8.8380003 12.402 17.370001 21.870001 26.181 30.024 55.062 59.562 61.533001"
         y="220.284"
         sodipodi:role="line"
         id="tspan190">today0.41Boris0.42European0.3</tspan><tspan
         x="-252.01801 -248.076 -246.105 -241.79401 -237.951 -234.38699 -232.416 -173.33099 -168.83099 -166.86 -162.36 -117.36 -115.389 -110.421 -108.45 -56.889 -52.389 -50.417999 -45.917999 -0.171 3.3929999 7.704 9.9540005 14.265 17.829 22.139999 26.639999 31.23 35.73 55.053001 59.553001 61.523998 66.024002"
         y="231.786"
         sodipodi:role="line"
         id="tspan192">clearly0.41join0.41referendum0.29</tspan><tspan
         x="-252.02699 -247.52699 -243.02699 -239.562 -173.34 -168.84 -166.869 -162.369 -117.369 -114.372 -109.404 -104.814 -100.971 -56.897999 -52.397999 -50.426998 -45.926998 -0.18000001 3.2850001 7.7849998 12.285 16.785 21.753 25.316999 55.043999 59.543999 61.514999 66.014999"
         y="243.28799"
         sodipodi:role="line"
         id="tspan194">busy0.41today0.41support0.28</tspan><tspan
         x="-252.036 -249.039 -245.47501 -241.632 -237.04201 -235.071 -230.571 -173.349 -168.849 -166.87801 -117.378 -112.878 -109.035 -105.093 -56.907001 -52.407001 -50.436001 -0.189 2.0610001 6.5609999 11.061 55.035 59.535 61.506001 66.005997"
         y="254.78999"
         sodipodi:role="line"
         id="tspan196">trading0.4back0.4June0.28</tspan></text>
</g></svg>