<?xml version="1.0" encoding="UTF-8" standalone="no"?>
<!-- Created with Inkscape (http://www.inkscape.org/) -->

<svg
   xmlns:dc="http://purl.org/dc/elements/1.1/"
   xmlns:cc="http://creativecommons.org/ns#"
   xmlns:rdf="http://www.w3.org/1999/02/22-rdf-syntax-ns#"
   xmlns:svg="http://www.w3.org/2000/svg"
   xmlns="http://www.w3.org/2000/svg"
   xmlns:sodipodi="http://sodipodi.sourceforge.net/DTD/sodipodi-0.dtd"
   xmlns:inkscape="http://www.inkscape.org/namespaces/inkscape"
   id="svg2"
   version="1.1"
   inkscape:version="0.91 r13725"
   xml:space="preserve"
   width="463.01221"
   height="133.54736"
   viewBox="0 0 463.01221 133.54736"
   sodipodi:docname="Sticks and stones-table4.svg"><metadata
     id="metadata8"><rdf:RDF><cc:Work
         rdf:about=""><dc:format>image/svg+xml</dc:format><dc:type
           rdf:resource="http://purl.org/dc/dcmitype/StillImage" /><dc:title></dc:title></cc:Work></rdf:RDF></metadata><defs
     id="defs6" /><sodipodi:namedview
     pagecolor="#ffffff"
     bordercolor="#666666"
     borderopacity="1"
     objecttolerance="10"
     gridtolerance="10"
     guidetolerance="10"
     inkscape:pageopacity="0"
     inkscape:pageshadow="2"
     inkscape:window-width="2048"
     inkscape:window-height="1128"
     id="namedview4"
     showgrid="false"
     fit-margin-top="10"
     fit-margin-left="10"
     fit-margin-right="10"
     fit-margin-bottom="10"
     inkscape:zoom="1.5161629"
     inkscape:cx="148.28613"
     inkscape:cy="91.028876"
     inkscape:window-x="0"
     inkscape:window-y="24"
     inkscape:window-maximized="1"
     inkscape:current-layer="g10" /><g
     id="g10"
     inkscape:groupmode="layer"
     inkscape:label="Sticks and stones-comparing Twitter campaigning strategies"
     transform="matrix(1.25,0,0,-1.25,-67.854407,478.34536)"><g
       id="g60"
       transform="translate(62.3622,361.5884)"><path
         d="M 0,0 354.331,0"
         style="fill:none;stroke:#231f20;stroke-width:0.5;stroke-linecap:butt;stroke-linejoin:miter;stroke-miterlimit:10;stroke-dasharray:none;stroke-opacity:1"
         id="path62"
         inkscape:connector-curvature="0" /></g><text
       transform="matrix(1,0,0,-1,62.3622,367.8384)"
       style="font-variant:normal;font-weight:bold;font-stretch:normal;font-size:9px;font-family:'Gill Sans Std';-inkscape-font-specification:GillSansStd-Bold;writing-mode:lr-tb;fill:#231f20;fill-opacity:1;fill-rule:nonzero;stroke:none"
       id="text64"><tspan
         x="0 6.4710002 11.25 16.497 18.936001 23.903999 26.406 31.374001"
         y="0"
         sodipodi:role="line"
         id="tspan66">Table 4.</tspan></text>
<text
       transform="matrix(1,0,0,-1,100.6752,367.8384)"
       style="font-variant:normal;font-weight:normal;font-stretch:normal;font-size:9px;font-family:'Gill Sans Std';-inkscape-font-specification:GillSansStd;writing-mode:lr-tb;fill:#231f20;fill-opacity:1;fill-rule:nonzero;stroke:none"
       id="text68"><tspan
         x="0 6.6599998 10.224 15.192 19.691999 24.191999 27.657 29.628 32.130001 36.630001 40.095001 44.405998 46.908001 51.875999 54.125999 56.627998 60.471001 62.721001 64.971001 69.281998 73.223999 76.221001"
         y="0"
         sodipodi:role="line"
         id="tspan70">Groups’ use of affect.</tspan></text>
<g
       id="g72"
       transform="translate(62.3622,324.8384)"><path
         d="M 0,0 57.696,0"
         style="fill:none;stroke:#231f20;stroke-width:0.5;stroke-linecap:butt;stroke-linejoin:miter;stroke-miterlimit:10;stroke-dasharray:none;stroke-opacity:1"
         id="path74"
         inkscape:connector-curvature="0" /></g><g
       id="g76"
       transform="translate(120.0577,324.8384)"><path
         d="M 0,0 48.683,0"
         style="fill:none;stroke:#231f20;stroke-width:0.5;stroke-linecap:butt;stroke-linejoin:miter;stroke-miterlimit:10;stroke-dasharray:none;stroke-opacity:1"
         id="path78"
         inkscape:connector-curvature="0" /></g><g
       id="g80"
       transform="translate(168.7408,324.8384)"><path
         d="M 0,0 50.744,0"
         style="fill:none;stroke:#231f20;stroke-width:0.5;stroke-linecap:butt;stroke-linejoin:miter;stroke-miterlimit:10;stroke-dasharray:none;stroke-opacity:1"
         id="path82"
         inkscape:connector-curvature="0" /></g><g
       id="g84"
       transform="translate(219.4851,324.8384)"><path
         d="M 0,0 48.802,0"
         style="fill:none;stroke:#231f20;stroke-width:0.5;stroke-linecap:butt;stroke-linejoin:miter;stroke-miterlimit:10;stroke-dasharray:none;stroke-opacity:1"
         id="path86"
         inkscape:connector-curvature="0" /></g><g
       id="g88"
       transform="translate(268.2871,324.8384)"><path
         d="M 0,0 49.86,0"
         style="fill:none;stroke:#231f20;stroke-width:0.5;stroke-linecap:butt;stroke-linejoin:miter;stroke-miterlimit:10;stroke-dasharray:none;stroke-opacity:1"
         id="path90"
         inkscape:connector-curvature="0" /></g><g
       id="g92"
       transform="translate(318.1469,324.8384)"><path
         d="M 0,0 48.135,0"
         style="fill:none;stroke:#231f20;stroke-width:0.5;stroke-linecap:butt;stroke-linejoin:miter;stroke-miterlimit:10;stroke-dasharray:none;stroke-opacity:1"
         id="path94"
         inkscape:connector-curvature="0" /></g><g
       id="g96"
       transform="translate(366.2823,324.8384)"><path
         d="M 0,0 50.411,0"
         style="fill:none;stroke:#231f20;stroke-width:0.5;stroke-linecap:butt;stroke-linejoin:miter;stroke-miterlimit:10;stroke-dasharray:none;stroke-opacity:1"
         id="path98"
         inkscape:connector-curvature="0" /></g><g
       id="g100"
       transform="translate(62.3622,284.0884)"><path
         d="M 0,0 57.696,0"
         style="fill:none;stroke:#231f20;stroke-width:0.5;stroke-linecap:butt;stroke-linejoin:miter;stroke-miterlimit:10;stroke-dasharray:none;stroke-opacity:1"
         id="path102"
         inkscape:connector-curvature="0" /></g><g
       id="g104"
       transform="translate(120.0577,284.0884)"><path
         d="M 0,0 48.683,0"
         style="fill:none;stroke:#231f20;stroke-width:0.5;stroke-linecap:butt;stroke-linejoin:miter;stroke-miterlimit:10;stroke-dasharray:none;stroke-opacity:1"
         id="path106"
         inkscape:connector-curvature="0" /></g><g
       id="g108"
       transform="translate(168.7408,284.0884)"><path
         d="M 0,0 50.744,0"
         style="fill:none;stroke:#231f20;stroke-width:0.5;stroke-linecap:butt;stroke-linejoin:miter;stroke-miterlimit:10;stroke-dasharray:none;stroke-opacity:1"
         id="path110"
         inkscape:connector-curvature="0" /></g><g
       id="g112"
       transform="translate(219.4851,284.0884)"><path
         d="M 0,0 48.802,0"
         style="fill:none;stroke:#231f20;stroke-width:0.5;stroke-linecap:butt;stroke-linejoin:miter;stroke-miterlimit:10;stroke-dasharray:none;stroke-opacity:1"
         id="path114"
         inkscape:connector-curvature="0" /></g><g
       id="g116"
       transform="translate(268.2871,284.0884)"><path
         d="M 0,0 49.86,0"
         style="fill:none;stroke:#231f20;stroke-width:0.5;stroke-linecap:butt;stroke-linejoin:miter;stroke-miterlimit:10;stroke-dasharray:none;stroke-opacity:1"
         id="path118"
         inkscape:connector-curvature="0" /></g><g
       id="g120"
       transform="translate(318.1469,284.0884)"><path
         d="M 0,0 48.135,0"
         style="fill:none;stroke:#231f20;stroke-width:0.5;stroke-linecap:butt;stroke-linejoin:miter;stroke-miterlimit:10;stroke-dasharray:none;stroke-opacity:1"
         id="path122"
         inkscape:connector-curvature="0" /></g><g
       id="g124"
       transform="translate(366.2823,284.0884)"><path
         d="M 0,0 50.411,0"
         style="fill:none;stroke:#231f20;stroke-width:0.5;stroke-linecap:butt;stroke-linejoin:miter;stroke-miterlimit:10;stroke-dasharray:none;stroke-opacity:1"
         id="path126"
         inkscape:connector-curvature="0" /></g><g
       id="g128"
       transform="translate(134.8597,343.0884)"><path
         d="M 0,0 84.625,0"
         style="fill:none;stroke:#231f20;stroke-width:0.5;stroke-linecap:butt;stroke-linejoin:miter;stroke-miterlimit:10;stroke-dasharray:none;stroke-opacity:1"
         id="path130"
         inkscape:connector-curvature="0" /></g><text
       transform="matrix(1,0,0,-1,134.8597,349.3384)"
       style="font-variant:normal;font-weight:normal;font-stretch:normal;font-size:9px;font-family:'Gill Sans Std';-inkscape-font-specification:GillSansStd;writing-mode:lr-tb;fill:#231f20;fill-opacity:1;fill-rule:nonzero;stroke:none"
       id="text132"><tspan
         x="0 4.1220002 7.119 10.683 15.651 20.150999 23.993999 28.305 31.868999 34.370998 36.620998"
         y="0"
         sodipodi:role="line"
         id="tspan134">Stronger In</tspan></text>
<g
       id="g136"
       transform="translate(234.2871,343.0884)"><path
         d="M 0,0 83.86,0"
         style="fill:none;stroke:#231f20;stroke-width:0.5;stroke-linecap:butt;stroke-linejoin:miter;stroke-miterlimit:10;stroke-dasharray:none;stroke-opacity:1"
         id="path138"
         inkscape:connector-curvature="0" /></g><text
       transform="matrix(1,0,0,-1,234.2871,349.3384)"
       style="font-variant:normal;font-weight:normal;font-stretch:normal;font-size:9px;font-family:'Gill Sans Std';-inkscape-font-specification:GillSansStd;writing-mode:lr-tb;fill:#231f20;fill-opacity:1;fill-rule:nonzero;stroke:none"
       id="text140"><tspan
         x="0 5.4359999 10.404 13.401 17.712 20.214001 24.624001 28.934999 32.778 36.720001"
         y="0"
         sodipodi:role="line"
         id="tspan142">Vote Leave</tspan></text>
<g
       id="g144"
       transform="translate(332.9489,343.0884)"><path
         d="M 0,0 83.744,0"
         style="fill:none;stroke:#231f20;stroke-width:0.5;stroke-linecap:butt;stroke-linejoin:miter;stroke-miterlimit:10;stroke-dasharray:none;stroke-opacity:1"
         id="path146"
         inkscape:connector-curvature="0" /></g><text
       transform="matrix(1,0,0,-1,332.9489,349.3384)"
       style="font-variant:normal;font-weight:normal;font-stretch:normal;font-size:9px;font-family:'Gill Sans Std';-inkscape-font-specification:GillSansStd;writing-mode:lr-tb;fill:#231f20;fill-opacity:1;fill-rule:nonzero;stroke:none"
       id="text148"><tspan
         x="0 4.4099998 8.7209997 12.564 16.506001 20.816999 22.788 27.288"
         y="0"
         sodipodi:role="line"
         id="tspan150">Leave.EU</tspan><tspan
         x="-270.58499 -198.09 -193.02299 -189.08099 -186.57899 -183.582 -177.11099 -172.8 -168.489 -149.409 -144.342 -140.39999 -137.89799 -131.427 -126.459 -122.895 -118.305 -98.667 -93.599998 -89.657997 -87.155998 -84.158997 -77.688004 -73.376999 -69.066002 -49.868999 -44.801998 -40.860001 -38.358002 -31.886999 -26.919001 -23.355 -18.764999 -0.0089999996 5.0580001 9 11.502 14.499 20.969999 25.281 29.591999 48.123001 53.189999 57.132 59.633999 66.105003 71.072998 74.637001 79.226997"
         y="18.504"
         sodipodi:role="line"
         id="tspan152"> By tweetBy wordsBy tweetBy wordsBy tweetBy words</tspan><tspan
         x="-270.603 -263.57401 -259.263 -255.42 -251.577 -248.58 -246.60899 -242.66701 -238.356 -235.854 -229.851 -227.601 -225.351 -221.03999 -217.09801 -198.108 -193.608 -191.63699 -187.13699 -149.427 -144.927 -142.95599 -138.45599 -133.95599 -98.684998 -94.184998 -92.213997 -87.713997 -49.887001 -45.387001 -43.416 -38.916 -34.416 -0.027000001 4.473 6.4439998 10.944 48.105 52.605 54.576 59.076 63.576"
         y="36.251999"
         sodipodi:role="line"
         id="tspan154">Negative Affect0.361.99%0.372.07%0.422.43%</tspan><tspan
         x="-270.621 -266.03101 -261.06299 -257.59799 -255.627 -252.63 -250.659 -246.717 -242.40601 -239.90401 -233.901 -231.651 -229.401 -225.09 -221.14799 -198.12601 -193.62601 -191.655 -187.155 -149.44501 -144.94501 -142.974 -138.474 -133.974 -98.703003 -94.203003 -92.232002 -87.732002 -49.904999 -45.404999 -43.433998 -38.933998 -34.433998 -0.045000002 4.4549999 6.4260001 10.926 48.087002 52.587002 54.557999 59.057999 63.557999"
         y="47.754002"
         sodipodi:role="line"
         id="tspan156">Positive Affect0.653.62%0.553.04%0.462.63%</tspan><tspan
         x="-270.63901 -265.203 -260.23499 -257.23801 -253.395 -251.424 -248.922 -242.91901 -240.66901 -238.41901 -234.108 -230.166 -198.144 -193.644 -191.673 -187.173 -149.463 -144.963 -142.992 -138.492 -133.992 -98.721001 -94.221001 -92.25 -87.75 -49.923 -45.423 -43.452 -38.952 -34.452 -0.063000001 4.4369998 6.408 10.908 48.069 52.569 54.540001 59.040001 63.540001"
         y="59.256001"
         sodipodi:role="line"
         id="tspan158">Total Affect1.015.61%0.925.11%0.885.06%</tspan></text>
</g></svg>