<?xml version="1.0" encoding="UTF-8" standalone="no"?>
<!-- Created with Inkscape (http://www.inkscape.org/) -->

<svg
   xmlns:dc="http://purl.org/dc/elements/1.1/"
   xmlns:cc="http://creativecommons.org/ns#"
   xmlns:rdf="http://www.w3.org/1999/02/22-rdf-syntax-ns#"
   xmlns:svg="http://www.w3.org/2000/svg"
   xmlns="http://www.w3.org/2000/svg"
   xmlns:sodipodi="http://sodipodi.sourceforge.net/DTD/sodipodi-0.dtd"
   xmlns:inkscape="http://www.inkscape.org/namespaces/inkscape"
   id="svg2"
   version="1.1"
   inkscape:version="0.91 r13725"
   xml:space="preserve"
   width="462.91425"
   height="124.79736"
   viewBox="0 0 462.91425 124.79736"
   sodipodi:docname="Sticks and stones-table2.svg"><metadata
     id="metadata8"><rdf:RDF><cc:Work
         rdf:about=""><dc:format>image/svg+xml</dc:format><dc:type
           rdf:resource="http://purl.org/dc/dcmitype/StillImage" /><dc:title></dc:title></cc:Work></rdf:RDF></metadata><defs
     id="defs6" /><sodipodi:namedview
     pagecolor="#ffffff"
     bordercolor="#666666"
     borderopacity="1"
     objecttolerance="10"
     gridtolerance="10"
     guidetolerance="10"
     inkscape:pageopacity="0"
     inkscape:pageshadow="2"
     inkscape:window-width="2048"
     inkscape:window-height="1128"
     id="namedview4"
     showgrid="false"
     fit-margin-top="10"
     fit-margin-left="10"
     fit-margin-right="10"
     fit-margin-bottom="10"
     inkscape:zoom="1.5161629"
     inkscape:cx="227.33496"
     inkscape:cy="-34.664002"
     inkscape:window-x="0"
     inkscape:window-y="24"
     inkscape:window-maximized="1"
     inkscape:current-layer="g10" /><g
     id="g10"
     inkscape:groupmode="layer"
     inkscape:label="Sticks and stones-comparing Twitter campaigning strategies"
     transform="matrix(1.25,0,0,-1.25,-67.95275,806.34736)"><g
       id="g68"
       transform="translate(62.3622,623.99)"><path
         d="M 0,0 354.331,0"
         style="fill:none;stroke:#231f20;stroke-width:0.5;stroke-linecap:butt;stroke-linejoin:miter;stroke-miterlimit:10;stroke-dasharray:none;stroke-opacity:1"
         id="path70"
         inkscape:connector-curvature="0" /></g><text
       transform="matrix(1,0,0,-1,62.3622,630.24)"
       style="font-variant:normal;font-weight:bold;font-stretch:normal;font-size:9px;font-family:'Gill Sans Std';-inkscape-font-specification:GillSansStd-Bold;writing-mode:lr-tb;fill:#231f20;fill-opacity:1;fill-rule:nonzero;stroke:none"
       id="text72"><tspan
         x="0 6.4710002 11.25 16.497 18.936001 23.903999 26.406 31.374001"
         y="0"
         sodipodi:role="line"
         id="tspan74">Table 2.</tspan></text>
<text
       transform="matrix(1,0,0,-1,100.6752,630.24)"
       style="font-variant:normal;font-weight:normal;font-stretch:normal;font-size:9px;font-family:'Gill Sans Std';-inkscape-font-specification:GillSansStd;writing-mode:lr-tb;fill:#231f20;fill-opacity:1;fill-rule:nonzero;stroke:none"
       id="text76"><tspan
         x="0 6.6599998 10.224 15.192 19.691999 24.191999 27.657 29.628 32.130001 35.126999 41.598 45.909 50.220001 53.216999 56.681999 59.183998 63.125999 68.094002 72.594002 75.591003 79.433998 81.404999 85.904999 87.875999 92.375999 96.219002 98.721001 100.971 104.535 108.378 115.317 119.628 123.093 125.064 127.566 132.06599 136.377 139.94099 143.883 148.194 152.694 155.69099 159.534 163.377 167.688"
         y="0"
         sodipodi:role="line"
         id="tspan78">Groups’ tweets containing frames, percentage.</tspan></text>
<g
       id="g80"
       transform="translate(62.3622,605.74)"><path
         d="M 0,0 129.029,0"
         style="fill:none;stroke:#231f20;stroke-width:0.5;stroke-linecap:butt;stroke-linejoin:miter;stroke-miterlimit:10;stroke-dasharray:none;stroke-opacity:1"
         id="path82"
         inkscape:connector-curvature="0" /></g><g
       id="g84"
       transform="translate(191.3911,605.74)"><path
         d="M 0,0 77.723,0"
         style="fill:none;stroke:#231f20;stroke-width:0.5;stroke-linecap:butt;stroke-linejoin:miter;stroke-miterlimit:10;stroke-dasharray:none;stroke-opacity:1"
         id="path86"
         inkscape:connector-curvature="0" /></g><g
       id="g88"
       transform="translate(269.1142,605.74)"><path
         d="M 0,0 77.818,0"
         style="fill:none;stroke:#231f20;stroke-width:0.5;stroke-linecap:butt;stroke-linejoin:miter;stroke-miterlimit:10;stroke-dasharray:none;stroke-opacity:1"
         id="path90"
         inkscape:connector-curvature="0" /></g><g
       id="g92"
       transform="translate(346.9326,605.74)"><path
         d="M 0,0 69.761,0"
         style="fill:none;stroke:#231f20;stroke-width:0.5;stroke-linecap:butt;stroke-linejoin:miter;stroke-miterlimit:10;stroke-dasharray:none;stroke-opacity:1"
         id="path94"
         inkscape:connector-curvature="0" /></g><g
       id="g96"
       transform="translate(62.3622,553.49)"><path
         d="M 0,0 129.029,0"
         style="fill:none;stroke:#231f20;stroke-width:0.5;stroke-linecap:butt;stroke-linejoin:miter;stroke-miterlimit:10;stroke-dasharray:none;stroke-opacity:1"
         id="path98"
         inkscape:connector-curvature="0" /></g><g
       id="g100"
       transform="translate(191.3911,553.49)"><path
         d="M 0,0 77.723,0"
         style="fill:none;stroke:#231f20;stroke-width:0.5;stroke-linecap:butt;stroke-linejoin:miter;stroke-miterlimit:10;stroke-dasharray:none;stroke-opacity:1"
         id="path102"
         inkscape:connector-curvature="0" /></g><g
       id="g104"
       transform="translate(269.1142,553.49)"><path
         d="M 0,0 77.818,0"
         style="fill:none;stroke:#231f20;stroke-width:0.5;stroke-linecap:butt;stroke-linejoin:miter;stroke-miterlimit:10;stroke-dasharray:none;stroke-opacity:1"
         id="path106"
         inkscape:connector-curvature="0" /></g><g
       id="g108"
       transform="translate(346.9326,553.49)"><path
         d="M 0,0 69.761,0"
         style="fill:none;stroke:#231f20;stroke-width:0.5;stroke-linecap:butt;stroke-linejoin:miter;stroke-miterlimit:10;stroke-dasharray:none;stroke-opacity:1"
         id="path110"
         inkscape:connector-curvature="0" /></g><text
       transform="matrix(1,0,0,-1,227.1517,611.74)"
       style="font-variant:normal;font-weight:normal;font-stretch:normal;font-size:9px;font-family:'Gill Sans Std';-inkscape-font-specification:GillSansStd;writing-mode:lr-tb;fill:#231f20;fill-opacity:1;fill-rule:nonzero;stroke:none"
       id="text112"><tspan
         x="0 4.1220002 7.119 10.683 15.651 20.150999 23.993999 28.305 31.868999 34.370998 36.620998 77.723999 83.160004 88.127998 91.125 95.435997 97.938004 102.348 106.659 110.502 114.444 155.53799 159.948 164.259 168.10201 172.04401 176.355 178.326 182.826"
         y="0"
         sodipodi:role="line"
         id="tspan114">Stronger InVote LeaveLeave.EU</tspan><tspan
         x="-164.78999 -160.2 -155.23199 -151.767 -149.79601 -146.799 -144.828 -140.886 -136.575 -134.073 -130.23 -126.666 -122.823 -118.323 -111.384 -107.073 -102.573 -99.575996 -0 4.5 9 10.971 15.471 77.723999 82.223999 86.723999 88.695 93.195 155.53799 160.03799 164.53799 166.509 171.009"
         y="17.747999"
         sodipodi:role="line"
         id="tspan116">Positive arguments27.3416.0716.48</tspan><tspan
         x="-164.78999 -157.761 -153.45 -149.60699 -145.76401 -142.767 -140.79601 -136.854 -132.543 -130.041 -126.198 -122.634 -118.791 -114.291 -107.352 -103.041 -98.541 -95.543999 -0 4.5 9 10.971 15.471 77.723999 82.223999 86.723999 88.695 93.195 155.53799 160.03799 164.53799 166.509 171.009"
         y="29.25"
         sodipodi:role="line"
         id="tspan118">Negative arguments27.7835.8233.78</tspan><tspan
         x="-164.78999 -160.2 -155.23199 -151.767 -149.79601 -146.799 -144.828 -140.886 -136.575 -134.073 -127.134 -122.823 -118.323 -115.326 -113.355 -108.387 -103.887 -100.422 -97.919998 -92.952003 -90.702003 -88.199997 -83.232002 -76.761002 -72.261002 -69.759003 -65.916 -62.352001 -57.383999 -52.883999 -0 4.5 9 10.971 15.471 77.723999 82.223999 86.723999 88.695 93.195 155.53799 160.03799 164.53799 166.509 171.009"
         y="40.751999"
         sodipodi:role="line"
         id="tspan120">Positive mentions of own group33.5339.8838.20</tspan><tspan
         x="-164.78999 -157.761 -153.45 -149.60699 -145.76401 -142.767 -140.79601 -136.854 -132.543 -130.041 -123.102 -118.791 -114.291 -111.294 -109.323 -104.355 -99.855003 -96.389999 -93.888 -88.919998 -86.669998 -84.167999 -79.199997 -76.203003 -71.703003 -67.391998 -63.827999 -61.326 -57.483002 -53.918999 -48.951 -44.451 -39.951 -0 4.5 9 10.971 15.471 77.723999 82.223999 86.723999 88.695 93.195 155.53799 160.03799 164.53799 166.509 171.009"
         y="52.254002"
         sodipodi:role="line"
         id="tspan122">Negative mentions of other groups19.4518.6313.68</tspan></text>
</g></svg>