<?xml version="1.0" encoding="UTF-8" standalone="no"?>
<!-- Created with Inkscape (http://www.inkscape.org/) -->

<svg
   xmlns:dc="http://purl.org/dc/elements/1.1/"
   xmlns:cc="http://creativecommons.org/ns#"
   xmlns:rdf="http://www.w3.org/1999/02/22-rdf-syntax-ns#"
   xmlns:svg="http://www.w3.org/2000/svg"
   xmlns="http://www.w3.org/2000/svg"
   xmlns:sodipodi="http://sodipodi.sourceforge.net/DTD/sodipodi-0.dtd"
   xmlns:inkscape="http://www.inkscape.org/namespaces/inkscape"
   id="svg2"
   version="1.1"
   inkscape:version="0.91 r13725"
   xml:space="preserve"
   width="462.61774"
   height="271.87744"
   viewBox="0 0 462.61774 271.87744"
   sodipodi:docname="Sticks and stones-table3.svg"><metadata
     id="metadata8"><rdf:RDF><cc:Work
         rdf:about=""><dc:format>image/svg+xml</dc:format><dc:type
           rdf:resource="http://purl.org/dc/dcmitype/StillImage" /><dc:title></dc:title></cc:Work></rdf:RDF></metadata><defs
     id="defs6" /><sodipodi:namedview
     pagecolor="#ffffff"
     bordercolor="#666666"
     borderopacity="1"
     objecttolerance="10"
     gridtolerance="10"
     guidetolerance="10"
     inkscape:pageopacity="0"
     inkscape:pageshadow="2"
     inkscape:window-width="2048"
     inkscape:window-height="1128"
     id="namedview4"
     showgrid="false"
     fit-margin-top="10"
     fit-margin-left="10"
     fit-margin-right="10"
     fit-margin-bottom="10"
     inkscape:zoom="1.0692498"
     inkscape:cx="30.35564"
     inkscape:cy="107.09101"
     inkscape:window-x="0"
     inkscape:window-y="24"
     inkscape:window-maximized="1"
     inkscape:current-layer="g10" /><g
     id="g10"
     inkscape:groupmode="layer"
     inkscape:label="Sticks and stones-comparing Twitter campaigning strategies"
     transform="matrix(1.25,0,0,-1.25,-68.248,675.43211)"><g
       id="g124"
       transform="translate(62.5984,519.2578)"><path
         d="M 0,0 354.094,0"
         style="fill:none;stroke:#231f20;stroke-width:0.5;stroke-linecap:butt;stroke-linejoin:miter;stroke-miterlimit:10;stroke-dasharray:none;stroke-opacity:1"
         id="path126"
         inkscape:connector-curvature="0" /></g><text
       transform="matrix(1,0,0,-1,62.5984,525.5078)"
       style="font-variant:normal;font-weight:bold;font-stretch:normal;font-size:9px;font-family:'Gill Sans Std';-inkscape-font-specification:GillSansStd-Bold;writing-mode:lr-tb;fill:#231f20;fill-opacity:1;fill-rule:nonzero;stroke:none"
       id="text128"><tspan
         x="0 6.4710002 11.25 16.497 18.936001 23.903999 26.406 31.374001"
         y="0"
         sodipodi:role="line"
         id="tspan130">Table 3.</tspan></text>
<text
       transform="matrix(1,0,0,-1,100.9114,525.5078)"
       style="font-variant:normal;font-weight:normal;font-stretch:normal;font-size:9px;font-family:'Gill Sans Std';-inkscape-font-specification:GillSansStd;writing-mode:lr-tb;fill:#231f20;fill-opacity:1;fill-rule:nonzero;stroke:none"
       id="text132"><tspan
         x="0 6.6599998 10.224 15.192 19.691999 24.191999 27.657 29.628 32.130001 35.126999 41.598 45.909 50.220001 53.216999 56.681999 59.183998 63.683998 67.625999 70.127998 73.125 77.625 81.935997 88.875 93.185997 95.156998 97.658997 102.159 106.47 110.034 113.976 118.287 122.787 125.784 129.627 133.47 137.78101"
         y="0"
         sodipodi:role="line"
         id="tspan134">Groups’ tweets by theme, percentage.</tspan></text>
<g
       id="g136"
       transform="translate(62.5984,501.0078)"><path
         d="M 0,0 85.626,0"
         style="fill:none;stroke:#231f20;stroke-width:0.5;stroke-linecap:butt;stroke-linejoin:miter;stroke-miterlimit:10;stroke-dasharray:none;stroke-opacity:1"
         id="path138"
         inkscape:connector-curvature="0" /></g><g
       id="g140"
       transform="translate(148.2244,501.0078)"><path
         d="M 0,0 91.956,0"
         style="fill:none;stroke:#231f20;stroke-width:0.5;stroke-linecap:butt;stroke-linejoin:miter;stroke-miterlimit:10;stroke-dasharray:none;stroke-opacity:1"
         id="path142"
         inkscape:connector-curvature="0" /></g><g
       id="g144"
       transform="translate(240.1809,501.0078)"><path
         d="M 0,0 93.006,0"
         style="fill:none;stroke:#231f20;stroke-width:0.5;stroke-linecap:butt;stroke-linejoin:miter;stroke-miterlimit:10;stroke-dasharray:none;stroke-opacity:1"
         id="path146"
         inkscape:connector-curvature="0" /></g><g
       id="g148"
       transform="translate(333.1866,501.0078)"><path
         d="M 0,0 83.506,0"
         style="fill:none;stroke:#231f20;stroke-width:0.5;stroke-linecap:butt;stroke-linejoin:miter;stroke-miterlimit:10;stroke-dasharray:none;stroke-opacity:1"
         id="path150"
         inkscape:connector-curvature="0" /></g><g
       id="g152"
       transform="translate(62.5984,345.2578)"><path
         d="M 0,0 85.626,0"
         style="fill:none;stroke:#231f20;stroke-width:0.5;stroke-linecap:butt;stroke-linejoin:miter;stroke-miterlimit:10;stroke-dasharray:none;stroke-opacity:1"
         id="path154"
         inkscape:connector-curvature="0" /></g><g
       id="g156"
       transform="translate(148.2244,345.2578)"><path
         d="M 0,0 91.956,0"
         style="fill:none;stroke:#231f20;stroke-width:0.5;stroke-linecap:butt;stroke-linejoin:miter;stroke-miterlimit:10;stroke-dasharray:none;stroke-opacity:1"
         id="path158"
         inkscape:connector-curvature="0" /></g><g
       id="g160"
       transform="translate(240.1809,345.2578)"><path
         d="M 0,0 93.006,0"
         style="fill:none;stroke:#231f20;stroke-width:0.5;stroke-linecap:butt;stroke-linejoin:miter;stroke-miterlimit:10;stroke-dasharray:none;stroke-opacity:1"
         id="path162"
         inkscape:connector-curvature="0" /></g><g
       id="g164"
       transform="translate(333.1866,345.2578)"><path
         d="M 0,0 83.506,0"
         style="fill:none;stroke:#231f20;stroke-width:0.5;stroke-linecap:butt;stroke-linejoin:miter;stroke-miterlimit:10;stroke-dasharray:none;stroke-opacity:1"
         id="path166"
         inkscape:connector-curvature="0" /></g><text
       transform="matrix(1,0,0,-1,197.7301,507.0078)"
       style="font-variant:normal;font-weight:normal;font-stretch:normal;font-size:9px;font-family:'Gill Sans Std';-inkscape-font-specification:GillSansStd;writing-mode:lr-tb;fill:#231f20;fill-opacity:1;fill-rule:nonzero;stroke:none"
       id="text168"><tspan
         x="0 4.1220002 7.119 10.683 15.651 20.150999 23.993999 28.305 31.868999 34.370998 36.620998 91.953003 97.389 102.357 105.354 109.665 112.167 116.577 120.888 124.731 128.673 184.959 189.369 193.67999 197.52299 201.465 205.776 207.74699 212.24699"
         y="0"
         sodipodi:role="line"
         id="tspan170">Stronger InVote LeaveLeave.EU</tspan><tspan
         x="-135.13499 -130.545 -125.577 -122.112 -120.141 -117.144 -115.173 -111.231 -106.92 -104.418 -99.449997 -94.949997 -92.447998 -87.947998 5.4990001 9.9989996 11.97 16.469999 96.453003 100.953 102.924 107.424 190.45799 194.95799 196.929 201.429"
         y="17.747999"
         sodipodi:role="line"
         id="tspan172">Positive on EU5.670.000.00</tspan><tspan
         x="-135.13499 -128.763 -125.199 -123.228 -120.231 -118.26 -114.318 -112.347 -108.882 -101.943 -99.441002 -94.473 -92.223 -89.721001 -85.221001 5.4990001 9.9989996 11.97 16.469999 91.953003 96.453003 100.953 102.924 107.424 185.95799 190.45799 194.95799 196.929 201.429"
         y="29.25"
         sodipodi:role="line"
         id="tspan174">Criticism of EU0.0013.5615.96</tspan><tspan
         x="-135.13499 -130.545 -125.577 -123.606 -121.635 -118.638 -116.667 -112.725 5.4990001 9.9989996 11.97 16.469999 91.953003 96.453003 100.953 102.924 107.424 185.95799 190.45799 194.95799 196.929 201.429"
         y="40.751999"
         sodipodi:role="line"
         id="tspan176">Politics6.0512.6015.91</tspan><tspan
         x="-135.13499 -128.38499 -123.417 -116.478 -112.167 -108.702 -105.705 -103.734 0.99900001 5.4990001 9.9989996 11.97 16.469999 96.453003 100.953 102.924 107.424 190.45799 194.95799 196.929 201.429"
         y="52.254002"
         sodipodi:role="line"
         id="tspan178">Domestic10.356.295.22</tspan><tspan
         x="-135.13499 -130.06799 -125.568 -122.103 -120.132 -115.632 -111.321 -107.856 -104.391 -101.862 -98.864998 -95.301003 -91.458 -86.867996 0.99900001 5.4990001 9.9989996 11.97 16.469999 96.453003 100.953 102.924 107.424 185.95799 190.45799 194.95799 196.929 201.429"
         y="63.756001"
         sodipodi:role="line"
         id="tspan180">Business/trade26.377.4612.76</tspan><tspan
         x="-135.13499 -131.013 -126.702 -122.76 -118.26 -114.696 -112.725 -109.728 5.4990001 9.9989996 11.97 16.469999 96.453003 100.953 102.924 107.424 190.45799 194.95799 196.929 201.429"
         y="75.258003"
         sodipodi:role="line"
         id="tspan182">Security3.992.852.78</tspan><tspan
         x="-135.13499 -129.69901 -124.731 -122.76 -118.449 -115.947 -113.976 -109.476 -106.974 -103.977 -99.476997 -95.166 -92.664001 -86.193001 -81.224998 -77.661003 -75.690002 5.4990001 9.9989996 11.97 16.469999 96.453003 100.953 102.924 107.424 190.45799 194.95799 196.929 201.429"
         y="86.760002"
         sodipodi:role="line"
         id="tspan184">Role in the world3.600.731.79</tspan><tspan
         x="-135.13499 -132.88499 -125.946 -119.007 -117.036 -113.193 -109.629 -105.786 -102.789 -100.818 -95.849998 5.4990001 9.9989996 11.97 16.469999 91.953003 96.453003 100.953 102.924 107.424 190.45799 194.95799 196.929 201.429"
         y="98.262001"
         sodipodi:role="line"
         id="tspan186">Immigration1.2011.186.55</tspan><tspan
         x="-135.13499 -130.63499 -126.135 -123.138 -118.827 -115.263 -110.763 -106.92 -104.949 -102.447 -98.504997 -96.533997 -92.223 -85.751999 5.4990001 9.9989996 11.97 16.469999 96.453003 100.953 102.924 107.424 190.45799 194.95799 196.929 201.429"
         y="109.764"
         sodipodi:role="line"
         id="tspan188">External views3.530.594.13</tspan><tspan
         x="-135.13499 -128.763 -124.452 -122.481 -118.17 -113.67 -110.106 -108.135 -105.138 -101.196 -98.667 -94.167 -89.667 -85.167 -83.195999 -81.224998 -77.282997 -74.780998 -72.530998 -70.559998 -66.717003 -62.216999 -58.653 -54.341999 5.4990001 9.9989996 11.97 16.469999 96.453003 100.953 102.924 107.424 190.45799 194.95799 196.929 201.429"
         y="121.266"
         sodipodi:role="line"
         id="tspan190">Celebrity/public figures2.700.401.08</tspan><tspan
         x="-135.13499 -130.545 -126.045 -121.545 -119.574 -117.603 -113.661 -111.159 -106.191 -101.691 -99.720001 -95.220001 -93.249001 -88.280998 5.4990001 9.9989996 11.97 16.469999 96.453003 100.953 102.924 107.424 190.45799 194.95799 196.929 201.429"
         y="132.76801"
         sodipodi:role="line"
         id="tspan192">Public opinion0.200.431.87</tspan><tspan
         x="-135.13499 -128.763 -124.92 -117.981 -113.481 -109.638 -107.667 -103.824 0.99900001 5.4990001 9.9989996 11.97 16.469999 91.953003 96.453003 100.953 102.924 107.424 185.95799 190.45799 194.95799 196.929 201.429"
         y="144.27"
         sodipodi:role="line"
         id="tspan194">Campaign20.2520.9024.26</tspan><tspan
         x="-135.13499 -127.728 -123.228 -118.728 -113.76 -110.295 -108.324 -103.824 -99.981003 -97.478996 -93.537003 -89.694 -82.754997 -78.254997 -74.412003 -72.441002 -68.598 -64.098 0.99900001 5.4990001 9.9989996 11.97 16.469999 91.953003 96.453003 100.953 102.924 107.424 190.45799 194.95799 196.929 201.429"
         y="155.772"
         sodipodi:role="line"
         id="tspan196">Opposing campaigns19.0913.046.68</tspan></text>
<text
       transform="matrix(1,0,0,-1,62.5984,332.5078)"
       style="font-variant:normal;font-weight:normal;font-stretch:normal;font-size:8px;font-family:'Gill Sans Std';-inkscape-font-specification:GillSansStd;writing-mode:lr-tb;fill:#231f20;fill-opacity:1;fill-rule:nonzero;stroke:none"
       id="text198"><tspan
         x="0 4 9.6639996 11.416 13.64 17.639999 21.639999 24.808001 29.224001 33.223999 37.056 40.472 44.472 46.695999 52.360001 56.360001 58.112 62.528 66.528"
         y="0"
         sodipodi:role="line"
         id="tspan200">EU: European Union.</tspan></text>
</g></svg>