<?xml version="1.0" encoding="UTF-8" standalone="no"?>
<!-- Created with Inkscape (http://www.inkscape.org/) -->

<svg
   xmlns:dc="http://purl.org/dc/elements/1.1/"
   xmlns:cc="http://creativecommons.org/ns#"
   xmlns:rdf="http://www.w3.org/1999/02/22-rdf-syntax-ns#"
   xmlns:svg="http://www.w3.org/2000/svg"
   xmlns="http://www.w3.org/2000/svg"
   xmlns:sodipodi="http://sodipodi.sourceforge.net/DTD/sodipodi-0.dtd"
   xmlns:inkscape="http://www.inkscape.org/namespaces/inkscape"
   id="svg2"
   version="1.1"
   inkscape:version="0.91 r13725"
   xml:space="preserve"
   width="488.30823"
   height="437.59039"
   viewBox="0 0 488.30823 437.59039"
   sodipodi:docname="Maerz-table1.svg"><metadata
     id="metadata8"><rdf:RDF><cc:Work
         rdf:about=""><dc:format>image/svg+xml</dc:format><dc:type
           rdf:resource="http://purl.org/dc/dcmitype/StillImage" /><dc:title></dc:title></cc:Work></rdf:RDF></metadata><defs
     id="defs6" /><sodipodi:namedview
     pagecolor="#ffffff"
     bordercolor="#666666"
     borderopacity="1"
     objecttolerance="10"
     gridtolerance="10"
     guidetolerance="10"
     inkscape:pageopacity="0"
     inkscape:pageshadow="2"
     inkscape:window-width="2048"
     inkscape:window-height="1128"
     id="namedview4"
     showgrid="false"
     fit-margin-top="10"
     fit-margin-left="10"
     fit-margin-right="10"
     fit-margin-bottom="10"
     inkscape:zoom="1.0606273"
     inkscape:cx="142.35867"
     inkscape:cy="327.62302"
     inkscape:window-x="0"
     inkscape:window-y="24"
     inkscape:window-maximized="1"
     inkscape:current-layer="g10" /><g
     id="g10"
     inkscape:groupmode="layer"
     inkscape:label="Maerz - 2019 - Simulating pluralism the language of democracy in"
     transform="matrix(1.25,0,0,-1.25,-64.461752,500.48672)"><path
       d="m 59.981,381.657 373.266,0 0,0.51022 -373.266,0 0,-0.51022 z"
       style="fill:#282781;fill-opacity:1;fill-rule:nonzero;stroke:none"
       id="path126"
       inkscape:connector-curvature="0" /><path
       d="m 59.981,122.457 373.266,0 0,0.51022 -373.266,0 0,-0.51022 z"
       style="fill:#282781;fill-opacity:1;fill-rule:nonzero;stroke:none"
       id="path128"
       inkscape:connector-curvature="0" /><path
       d="m 59.981,369.468 373.266,0 0,0.51022 -373.266,0 0,-0.51022 z"
       style="fill:#282781;fill-opacity:1;fill-rule:nonzero;stroke:none"
       id="path130"
       inkscape:connector-curvature="0" /><text
       transform="matrix(1,0,0,-1,59.9811,385.1716)"
       style="font-variant:normal;font-weight:normal;font-size:9.5px;font-family:AdvOT35387326;-inkscape-font-specification:AdvOT35387326;writing-mode:lr-tb;fill:#282781;fill-opacity:1;fill-rule:nonzero;stroke:none"
       id="text132"><tspan
         x="0 4.75 9.3955002 14.535 16.91 24.491949 29.33695"
         y="0"
         sodipodi:role="line"
         id="tspan134">Table1.</tspan></text>
<text
       transform="matrix(1,0,0,-1,94.56395,385.1716)"
       style="font-variant:normal;font-weight:normal;font-size:9.5px;font-family:AdvOT5fcf1b24;-inkscape-font-specification:AdvOT5fcf1b24;writing-mode:lr-tb;fill:#000000;fill-opacity:1;fill-rule:nonzero;stroke:none"
       id="text136"><tspan
         x="0 4.8449998 8.9965 12.3595 16.710501 22.9615 27.113001 31.863001 39.5732 43.325699 47.971199 50.840199 55.6852 60.4352 66.729897 71.375397 76.764748 80.127747 85.042099 89.393097 93.744102 97.496597 102.2466 106.5976 112.82295 115.38795 120.03345 125.80565 128.67465 133.42465 140.65985 144.81136 149.56136 153.71284 155.78384 159.84035 163.20335 165.27435 168.7238"
         y="0"
         sodipodi:role="line"
         id="tspan138">Casesandcorpusofspeechesfortheanalysis.</tspan></text>
<text
       transform="matrix(1,0,0,-1,59.9811,372.9826)"
       style="font-variant:normal;font-weight:normal;font-size:7.99989986px;font-family:AdvOT5fcf1b24;-inkscape-font-specification:AdvOT5fcf1b24;writing-mode:lr-tb;fill:#000000;fill-opacity:1;fill-rule:nonzero;stroke:none"
       id="text140"><tspan
         x="0 4.4159446 8.4958935 12.575843 65.253586 69.333534 73.245483 77.245438 81.245384 83.661354 86.077324 143.31981 146.89577 150.31172 154.39166"
         y="0"
         sodipodi:role="line"
         id="tspan142">Abb.CountryType</tspan></text>
<text
       transform="matrix(1,0,0,-0.88877963,217.9842,376.4976)"
       style="font-variant:normal;font-weight:normal;font-size:5.99980021px;font-family:AdvOT5fcf1b24;-inkscape-font-specification:AdvOT5fcf1b24;writing-mode:lr-tb;fill:#000000;fill-opacity:1;fill-rule:nonzero;stroke:none"
       id="text144"><tspan
         x="0"
         y="0"
         id="tspan146">a</tspan></text>
<text
       transform="matrix(1,0,0,-1,280.3464,372.9826)"
       style="font-variant:normal;font-weight:normal;font-size:7.99989986px;font-family:AdvOT5fcf1b24;-inkscape-font-specification:AdvOT5fcf1b24;writing-mode:lr-tb;fill:#000000;fill-opacity:1;fill-rule:nonzero;stroke:none"
       id="text148"><tspan
         x="0 3.4159572 7.0799117 10.575868 14.655817 18.319771 20.735741 74.380669 77.876625 79.620605 82.036575 84.868538 98.701965 102.11792 105.61388 108.44585 121.26569 124.84164 128.92159 132.58554 136.2495 139.40945 143.40941 147.07336"
         y="0"
         sodipodi:role="line"
         id="tspan150">LeadersFirstLastSpeeches</tspan></text>
<text
       transform="matrix(1,0,0,-0.88877963,430.1857,376.4976)"
       style="font-variant:normal;font-weight:normal;font-size:5.99980021px;font-family:AdvOT5fcf1b24;-inkscape-font-specification:AdvOT5fcf1b24;writing-mode:lr-tb;fill:#000000;fill-opacity:1;fill-rule:nonzero;stroke:none"
       id="text152"><tspan
         x="0"
         y="0"
         id="tspan154">b</tspan></text>
<text
       transform="matrix(1,0,0,-1,59.9811,359.9432)"
       style="font-variant:normal;font-weight:normal;font-size:7.99989986px;font-family:AdvOT5fcf1b24;-inkscape-font-specification:AdvOT5fcf1b24;writing-mode:lr-tb;fill:#000000;fill-opacity:1;fill-rule:nonzero;stroke:none"
       id="text156"><tspan
         x="0 3.9999499 8.6638918 30.274021 34.273972 38.273922 43.689854 47.18581 48.929787 133.34154 137.42148 139.16547 143.07741 145.90938 149.57333 179.60255 183.17851 186.67447 190.75441 194.25037 200.57909 204.99504 206.73901 209.06699 213.48293 217.48288 223.56281 227.05876 233.46107 237.87703 239.621 241.94897 244.61295 248.1089 252.18884 255.8528 260.61673 265.03268 266.77667"
         y="0"
         sodipodi:role="line"
         id="tspan158">KUWKuwaitClosedSabahAl-AhmadAl-JaberAl-</tspan><tspan
         x="185.55528 189.13124 192.6272 196.70714 200.20309"
         y="8.9574881"
         sodipodi:role="line"
         id="tspan160">Sabah</tspan><tspan
         x="293.72513 297.46909 301.21304 304.957 317.64963 321.39359 325.13754 328.8815 353.70599 357.44992 361.19388"
         y="0"
         sodipodi:role="line"
         id="tspan162">20062015128</tspan><tspan
         x="0.00079999003 3.9127512 7.9127011 30.274822 35.018761 38.930714 41.346684 43.762653 50.116974 54.116924 58.028873 60.444843 64.108795 133.34154 137.42148 139.16547 143.07741 145.90938 149.57333 179.60255 183.60251 185.34648 193.77597 196.43994 200.3519 204.35185 210.78377 215.44771 293.72513 297.46909 301.21304 304.957 317.64963 321.39359 325.13754 328.8815 357.44833 361.19229"
         y="17.971775"
         sodipodi:role="line"
         id="tspan164">PRKNorthKoreaClosedKimJongUn2012201624</tspan><tspan
         x="0.00079999003 3.5767553 7.9927001 30.274822 33.850777 37.346733 41.346684 45.426632 49.550579 53.966526 56.382496 59.878452 63.958401 65.702377 133.34233 137.42229 139.16626 143.07822 145.91017 149.57413 179.60335 183.6033 185.34729 189.34723 195.76076 200.1767 204.25665 208.33659 212.33655 214.08052 215.82451 219.32047 223.3204 227.22516 231.22511 232.96909 236.96904 243.43936 247.01532 250.51126 252.25525 258.33517 261.83112"
         y="26.986063"
         sodipodi:role="line"
         id="tspan166">SAUSaudiArabiaClosedKingAbdullah,KingSalman</tspan></text>
<text
       transform="matrix(1,0,0,-0.88877963,325.7574,336.5291)"
       style="font-variant:normal;font-weight:normal;font-size:5.99980021px;font-family:AdvOT5fcf1b24;-inkscape-font-specification:AdvOT5fcf1b24;writing-mode:lr-tb;fill:#000000;fill-opacity:1;fill-rule:nonzero;stroke:none"
       id="text168"><tspan
         x="0"
         y="0"
         id="tspan170">c</tspan></text>
<text
       transform="matrix(1,0,0,-1,353.707,332.9574)"
       style="font-variant:normal;font-weight:normal;font-size:7.99989986px;font-family:AdvOT5fcf1b24;-inkscape-font-specification:AdvOT5fcf1b24;writing-mode:lr-tb;fill:#000000;fill-opacity:1;fill-rule:nonzero;stroke:none"
       id="text172"><tspan
         x="0 3.7439532 7.4879065 11.231859 23.924501 27.668453 31.412407 35.156361 63.723202 67.467155"
         y="0"
         sodipodi:role="line"
         id="tspan174">2010201663</tspan><tspan
         x="-293.72433 -289.06039 -284.64444 -263.45032 -258.78638 -254.78642 -253.04243 -250.62646 -246.96251 -240.5466 -236.13065 -233.71468 -230.21872 -223.7652 -220.18925 -214.10933 -212.36534 -209.94937 -206.45341 -204.03745 -200.37349 -160.3828 -156.30284 -154.55887 -150.64691 -147.81496 -144.151 -114.12177 -108.20985 -104.2979 -100.29794 -96.801987 -90.821266 -84.741341 -81.077385 -74.607071 -70.527115 -68.783142 -62.418419 -58.418468 -54.922512 -52.090549 -48.090599 -46.346622 -39.911503 -35.495556"
         y="9.014287"
         sodipodi:role="line"
         id="tspan176">UAEUnitedArabEmiratesClosedMohammedbinRashidAl</tspan><tspan
         x="-108.16904 -102.25712 -98.761162 -95.345207 -92.929237 -89.017288 -85.017334"
         y="17.971775"
         sodipodi:role="line"
         id="tspan178">Maktoum</tspan><tspan
         x="0.00079999003 3.7447531 7.4887066 11.232659 23.925301 27.669254 31.413208 35.157162 63.724003 67.467957"
         y="9.014287"
         sodipodi:role="line"
         id="tspan180">2000201686</tspan><tspan
         x="-293.72354 -289.30759 -285.39563 -263.44949 -259.03357 -255.9536 -252.28964 -249.87367 -245.79373 -242.29778 -240.55379 -238.80981 -235.31386 -160.38199 -155.63806 -151.97411 -147.89415 -144.23019 -138.15027 -134.23833 -130.23837 -128.4944 -114.12017 -112.3762 -110.63222 -106.63227 -103.13631 -94.730812 -90.314873 -88.570892 -86.826912 -83.410957 -79.747002 0.0023999701 3.7463531 7.4903064 11.23426 23.926901 27.670855 31.414806 35.15876 59.98325 63.727203 67.471153"
         y="26.986063"
         sodipodi:role="line"
         id="tspan182">AZEAzerbaijanHegemonicIlhamAliyev20102017442</tspan><tspan
         x="-293.72354 -289.64359 -285.22763 -263.44949 -259.36957 -255.8736 -249.79367 -246.12973 -243.71376 -239.8018 -235.88985 -160.38199 -155.63806 -151.97411 -147.89415 -144.23019 -138.15027 -134.23833 -130.23837 -128.4944 -114.12017 -110.20822 -106.71227 -102.71232 -98.642769 -94.642815 -92.898842 -89.48288 0.0023999701 3.7463531 7.4903064 11.23426 23.926901 27.670855 31.414806 35.15876 63.725605 67.469559"
         y="36.000351"
         sodipodi:role="line"
         id="tspan184">CAOCameroonHegemonicPaulBiya2013201751</tspan><tspan
         x="-293.72354 -291.05957 -286.14761 -263.44949 -260.78555 -256.8736 -254.45763 -250.37767 -246.88171 -160.38199 -155.63806 -151.97411 -147.89415 -144.23019 -138.15027 -134.23833 -130.23837 -128.4944 -114.12017 -110.12022 -108.37624 -104.3763 -97.962776 -93.546829 -89.466881 -85.386932 -81.386986 -79.643005 -77.899025 -72.054298 -70.310318 -68.566345 0.0023999701 3.7463531 7.4903064 11.23426 23.926901 27.670855 31.414806 35.15876 59.98325 63.727203 67.471153"
         y="45.014637"
         sodipodi:role="line"
         id="tspan186">JORJordanHegemonicKingAbdullaII.19992017100</tspan><tspan
         x="-293.72354 -289.72357 -285.81161 -263.44949 -259.44955 -255.9536 -252.87364 -249.37769 -245.96173 -241.96178 -239.12981 -236.71384 -233.21788 -160.38199 -155.63806 -151.97411 -147.89415 -144.23019 -138.15027 -134.23833 -130.23837 -128.4944 -114.12017 -109.37624 -105.37628 -102.96031 -100.12835 -96.128395 -94.384422 -91.968452 -88.472496 -82.14537 -77.401436 -73.905479 -70.825516 -67.329559 -64.913589 -60.833641 -57.42728 -54.011326 -50.34737 0.0023999701 3.7463531 7.4903064 11.23426 23.926901 27.670855 31.414806 35.15876 63.725605 67.469559"
         y="53.972126"
         sodipodi:role="line"
         id="tspan188">KZKKazakhstanHegemonicNursultanNazarbayev2007201715</tspan><tspan
         x="-293.72354 -290.14758 -288.40359 -263.44949 -259.87357 -258.12958 -254.12962 -250.04967 -246.55371 -242.47377 -238.56181 -236.14584 -160.38199 -155.63806 -151.97411 -147.89415 -144.23019 -138.15027 -134.23833 -130.23837 -128.4944 -114.12017 -110.70422 -107.04026 -101.02434 -96.280396 -93.448433 -91.704453 -88.040497 -81.69178 -78.275818 -74.363869 -70.45192 -66.451973 0.0023999701 3.7463531 7.4903064 11.23426 23.926901 27.670855 31.414806 35.15876 63.725605 67.469559"
         y="62.986412"
         sodipodi:role="line"
         id="tspan190">SINSingaporeHegemonicLeeHsienLoong2010201759</tspan><tspan
         x="-293.72354 -290.14758 -285.73163 -263.44949 -259.87357 -256.37759 -254.63362 -252.88963 -249.47368 -247.72971 -244.89774 -242.48177 -238.98581 -160.38199 -155.63806 -151.97411 -147.89415 -144.23019 -138.15027 -134.23833 -130.23837 -128.4944 -114.12017 -110.54422 -104.46429 -100.55235 -94.47242 -90.976463 -89.232483 -85.150139 -81.150185 -77.654228 -73.654282 -67.574356 -63.662403 0.0023999701 3.7463531 7.4903064 11.23426 23.926901 27.670855 31.414806 35.15876 63.725605 67.469559"
         y="72.000702"
         sodipodi:role="line"
         id="tspan192">TAJTajikistanHegemonicEmomaliRahmon2004201768</tspan><tspan
         x="-293.72354 -289.0596 -285.14764 -263.44949 -258.78555 -255.7056 -251.62566 -247.9617 -244.54575 -242.80176 -239.9698 -237.55383 -234.05788 -160.38199 -155.63806 -151.97411 -147.89415 -144.23019 -138.15027 -134.23833 -130.23837 -128.4944 -114.12017 -112.3762 -109.54423 -107.80025 -104.3043 -95.865204 -91.86525 -88.369293 -85.953323 -84.209351 -78.129425 -74.217476 -70.721519 -66.781563 -63.205608 -59.205662 -55.709705 -52.213749 -48.797791 -45.301834"
         y="81.014984"
         sodipodi:role="line"
         id="tspan194">UZBUzbekistanHegemonicIslamKarimov,Shavkat</tspan><tspan
         x="-108.16825 -102.25632 -100.51234 -98.096375 -95.016411 -93.27243 -89.856476 -85.944527 -82.528572 -78.864616"
         y="89.972473"
         sodipodi:role="line"
         id="tspan196">Mirziyoyev</tspan></text>
<text
       transform="matrix(1,0,0,-0.88877963,278.3055,246.5007)"
       style="font-variant:normal;font-weight:normal;font-size:5.99980021px;font-family:AdvOT5fcf1b24;-inkscape-font-specification:AdvOT5fcf1b24;writing-mode:lr-tb;fill:#000000;fill-opacity:1;fill-rule:nonzero;stroke:none"
       id="text198"><tspan
         x="0"
         y="0"
         id="tspan200">c</tspan></text>
<text
       transform="matrix(1,0,0,-1,353.707,251.9433)"
       style="font-variant:normal;font-weight:normal;font-size:7.99989986px;font-family:AdvOT5fcf1b24;-inkscape-font-specification:AdvOT5fcf1b24;writing-mode:lr-tb;fill:#000000;fill-opacity:1;fill-rule:nonzero;stroke:none"
       id="text202"><tspan
         x="0 3.7439532 7.4879065 11.231859 23.924501 27.668453 31.412407 35.156361 63.723202 67.467155"
         y="0"
         sodipodi:role="line"
         id="tspan204">2010201627</tspan><tspan
         x="-293.72433 -287.81241 -283.39645 -263.45032 -257.53839 -254.04242 -252.29845 -248.80249 -245.38654 -242.55457 -240.81059 -160.3828 -156.30284 -152.3909 -146.31097 -142.23102 -138.56706 -136.15109 -134.40712 -131.99115 -130.24718 -126.75121 -114.12097 -109.37703 -105.88107 -103.4651"
         y="17.971775"
         sodipodi:role="line"
         id="tspan206">MALMalaysiaCompetitiveDato</tspan></text>
<text
       transform="matrix(1,0,0,-1,254.09865,233.97152)"
       style="font-variant:normal;font-weight:normal;font-size:7.99989986px;font-family:'AdvOT5fcf1b24 20';-inkscape-font-specification:'AdvOT5fcf1b24 20';writing-mode:lr-tb;fill:#000000;fill-opacity:1;fill-rule:nonzero;stroke:none"
       id="text208"><tspan
         x="0"
         y="0"
         id="tspan210">’</tspan></text>
<text
       transform="matrix(1,0,0,-1,258.0674,233.97152)"
       style="font-variant:normal;font-weight:normal;font-size:7.99989986px;font-family:AdvOT5fcf1b24;-inkscape-font-specification:AdvOT5fcf1b24;writing-mode:lr-tb;fill:#000000;fill-opacity:1;fill-rule:nonzero;stroke:none"
       id="text212"><tspan
         x="0 3.5759554 5.9919252 10.147873 16.059799 19.97175 23.971701 30.387621 35.131561 38.627518 40.371494 42.115475 95.641205 99.385155 103.12911 106.87306 119.5657 123.30966 127.05361 130.79756 159.36441 163.10837"
         y="0"
         sodipodi:role="line"
         id="tspan214">SriMohdNajib2017201713</tspan><tspan
         x="-198.08392 -192.172 -187.26006 -167.80991 -161.89798 -157.98602 -155.57005 -151.65811 -148.49814 -145.33818 -64.742393 -60.662441 -56.750492 -50.670567 -46.590618 -42.926662 -40.510693 -38.766716 -36.350746 -34.606766 -31.110811 -18.48057 -14.480619 -12.736641 -8.7366905 -2.3231709 3.5887551 7.5007062 11.500656 14.996613 21.076536 27.15646 30.729216 37.249134 41.329082 43.073063 95.642807 99.386757 103.13071 106.87466 119.56731 123.31126 127.05521 130.79916 155.62366 159.36761 163.11156"
         y="9.014287"
         sodipodi:role="line"
         id="tspan216">MORMoroccoCompetitiveKingMohammedVI.20122017101</tspan><tspan
         x="-198.08392 -194.08397 -189.42003 -167.80991 -163.80995 -159.81 -156.97804 -154.14607 -152.4021 -64.742393 -60.662441 -56.750492 -50.670567 -46.590618 -42.926662 -40.510693 -38.766716 -36.350746 -34.606766 -31.110811 -18.48057 -14.40062 -12.656642 -9.1606855 -5.0807366 -3.3367584 2.7431657 4.487144 9.2422848 13.154236 17.154186 19.570156 21.314133 95.642006 99.385956 103.12991 106.87386 119.56651 123.31046 127.05441 130.79837 155.62285 159.36681 163.11076"
         y="18.028576"
         sodipodi:role="line"
         id="tspan218">RUSRussiaCompetitiveVladimirPutin20122017325</tspan><tspan
         x="-198.08392 -193.41998 -188.84404 -167.80991 -163.14597 -159.06601 -155.57005 -151.5701 -147.49016 -64.742393 -60.662441 -56.750492 -50.670567 -46.590618 -42.926662 -40.510693 -38.766716 -36.350746 -34.606766 -31.110811 -18.48057 -14.568618 -10.656667 -5.2407346 -1.5767803 0.83918953 4.9335384 10.845465 14.845414 17.67738 21.341333 24.83729 28.501244 32.501194 95.642006 99.385956 103.12991 106.87386 119.56651 123.31046 127.05441 130.79837 159.3652 163.10916"
         y="26.986063"
         sodipodi:role="line"
         id="tspan220">UGAUgandaCompetitiveYoweriMuseveni2011201659</tspan><tspan
         x="-198.08392 -193.33998 -188.67604 -167.80991 -163.06596 -159.06601 -155.06606 -150.98611 -147.49016 -145.07419 -64.742393 -60.742439 -57.246483 -54.086525 -50.670567 -47.8386 -46.094624 -44.350647 -40.270695 -38.526718 -34.526768 -18.481369 -14.40142 -12.657442 -9.2414846 -6.8255148 -2.9135635 1.8143773 6.726316 9.1422853 13.222235 16.718191 95.640404 99.384361 103.12831 106.87226 119.5649 123.30886 127.05281 130.79677 155.62126 159.3652 163.10916"
         y="36.000351"
         sodipodi:role="line"
         id="tspan222">HUNHungaryBackslidingViktorOrban20142017162</tspan><tspan
         x="-198.08392 -194.50797 -189.84402 -167.80991 -164.23395 -160.23399 -157.81802 -154.40207 -150.73811 -64.742393 -60.742439 -57.246483 -54.086525 -50.670567 -47.8386 -46.094624 -44.350647 -40.270695 -38.526718 -34.526768 -18.481369 -14.481419 -10.817465 -7.6575041 -3.9935501 2.4383695 6.0143247 9.5102816 12.926238 16.342196 18.086174 24.491693 28.06765 30.48362 34.563568 38.475517 42.55547 46.051426 95.641205 99.385155 103.12911 106.87306 119.5657 123.30966 127.05361 130.79756 159.36441 163.10837"
         y="45.014637"
         sodipodi:role="line"
         id="tspan224">TURTurkeyBackslidingRecepTayyibErdogan2014201739</tspan><tspan
         x="-198.08392 -194.00398 -189.58803 -167.80991 -163.72995 -160.23399 -156.23405 -152.7381 -148.65814 -64.742393 -59.998451 -56.334496 -50.25457 -46.342621 -43.182659 -40.766689 -37.270733 -34.854763 -33.110786 -18.48057 -15.816603 -11.816652 -8.9846878 -6.568718 -4.8247395 1.5319809 5.1079364 7.5239058 11.523856 15.603805 19.267759 22.763716 95.642006 99.385956 103.12991 106.87386 119.56651 123.31046 127.05441 130.79837 159.3652 163.10916"
         y="54.028927"
         sodipodi:role="line"
         id="tspan226">CANCanadaDemocraticJustinTrudeau2015201723</tspan><tspan
         x="-198.08392 -193.33998 -189.76402 -167.80991 -163.06596 -159.40201 -155.40205 -149.32213 -145.82617 -143.4102 -64.742393 -59.998451 -56.334496 -50.25457 -46.342621 -43.182659 -40.766689 -37.270733 -34.854763 -33.110786 -18.48057 -15.064611 -11.568655 -9.1526852 -3.9671504 -0.55119312 3.3607581 6.7767153 10.192673 16.215797 20.215748 23.711704 26.543669 32.623592 36.623543 39.455505 42.181072 45.845028"
         y="62.986412"
         sodipodi:role="line"
         id="tspan228">DENDenmarkDemocraticLarsLokkeRasmussen</tspan></text>
<text
       transform="matrix(1,0,0,-0.88877963,307.8991,174.5007)"
       style="font-variant:normal;font-weight:normal;font-size:5.99980021px;font-family:AdvOT5fcf1b24;-inkscape-font-specification:AdvOT5fcf1b24;writing-mode:lr-tb;fill:#000000;fill-opacity:1;fill-rule:nonzero;stroke:none"
       id="text230"><tspan
         x="0"
         y="0"
         id="tspan232">d</tspan></text>
<text
       transform="matrix(1,0,0,-1,353.707,170.9858)"
       style="font-variant:normal;font-weight:normal;font-size:7.99989986px;font-family:AdvOT5fcf1b24;-inkscape-font-specification:AdvOT5fcf1b24;writing-mode:lr-tb;fill:#000000;fill-opacity:1;fill-rule:nonzero;stroke:none"
       id="text234"><tspan
         x="0 3.7439532 7.4879065 11.231859 23.924501 27.668453 31.412407 35.156361 63.723202 67.467155"
         y="0"
         sodipodi:role="line"
         id="tspan236">2009201755</tspan><tspan
         x="-293.72433 -289.14838 -283.23645 -263.45032 -258.87436 -255.2104 -252.79443 -246.71452 -243.21857 -239.21861 -160.3828 -155.63885 -151.9749 -145.89497 -141.98303 -138.82306 -136.40709 -132.91113 -130.49516 -128.75119 -114.12097 -109.70503 -105.70508 -101.62513 -97.961174 -96.217194 -90.366867 -84.454941 -80.790993 -78.375023 -74.959061 -71.295113 0.0015999801 3.7455533 7.4895062 11.233459 23.926102 27.670053 31.414007 35.157959 63.724804 67.468758"
         y="9.014287"
         sodipodi:role="line"
         id="tspan238">GMYGermanyDemocraticAngelaMerkel2009201764</tspan><tspan
         x="-293.72433 -288.98038 -284.06845 -263.45032 -258.70636 -254.79442 -252.37845 -246.96251 -243.46655 -160.3828 -155.63885 -151.9749 -145.89497 -141.98303 -138.82306 -136.40709 -132.91113 -130.49516 -128.75119 -114.12097 -110.54502 -108.12905 -104.1291 -98.303574 -94.727615 -90.815666 -89.071686 -84.991737 -81.327782 -78.911812 0.0015999801 3.7455533 7.4895062 11.233459 23.926102 27.670053 31.414007 35.157959 59.982449 63.726402 67.47036"
         y="18.028576"
         sodipodi:role="line"
         id="tspan240">NORNorwayDemocraticErnaSolberg20132017122</tspan><tspan
         x="-293.72433 -289.06039 -285.06042 -263.45032 -258.78638 -254.78642 -253.04243 -250.62646 -246.96251 -240.5466 -236.54665 -234.80266 -230.80272 -226.72276 -222.64282 -218.73087 -210.27257 -206.36063 -201.82547 -197.24953 -194.83356 -191.16962 -187.67366"
         y="27.042862"
         sodipodi:role="line"
         id="tspan242">UKGUnitedKingdomofGreat</tspan><tspan
         x="-257.4408 -253.44083 -251.02486 -249.28088 -246.86491 -243.36896 -241.62498"
         y="36.000351"
         sodipodi:role="line"
         id="tspan244">Britain</tspan><tspan
         x="-160.3828 -155.63885 -151.9749 -145.89497 -141.98303 -138.82306 -136.40709 -132.91113 -130.49516 -128.75119 -114.12097 -110.54502 -106.54507 -102.88111 -100.46514 -96.801193 -93.969223 -88.155701 -82.243774 -78.747818 0.0015999801 3.7455533 7.4895062 11.233459 23.926102 27.670053 31.414007 35.157959 63.724804 67.468758"
         y="27.042862"
         sodipodi:role="line"
         id="tspan246">DemocraticTheresaMay2016201748</tspan><tspan
         x="-293.72354 -289.64359 -285.73163 -283.31564 -279.23572 -275.23575 56.240097 59.984051 63.728004 67.471954"
         y="45.014637"
         sodipodi:role="line"
         id="tspan248">Corpus2074</tspan></text>
<text
       transform="matrix(1,0,0,-0.88877963,59.9811,117.5244)"
       style="font-variant:normal;font-weight:normal;font-size:5.99980021px;font-family:AdvOT5fcf1b24;-inkscape-font-specification:AdvOT5fcf1b24;writing-mode:lr-tb;fill:#000000;fill-opacity:1;fill-rule:nonzero;stroke:none"
       id="text250"><tspan
         x="0"
         y="0"
         id="tspan252">a</tspan></text>
<text
       transform="matrix(1,0,0,-1,62.6457,113.9527)"
       style="font-variant:normal;font-weight:normal;font-size:7.99989986px;font-family:AdvOT5fcf1b24;-inkscape-font-specification:AdvOT5fcf1b24;writing-mode:lr-tb;fill:#000000;fill-opacity:1;fill-rule:nonzero;stroke:none"
       id="text254"><tspan
         x="0 6.2479219 10.247872 11.99185 13.735828 19.105362 21.937326 25.849277 31.929201 37.303535 40.135498 44.215446 47.879402 51.543354 54.703316 58.703266 62.367222 66.89756 72.313499 75.977448 78.393417 83.791756 87.871704 91.535652 93.279633 95.023613 98.519569 102.18353 104.59949 108.16985 114.00897 115.75295 121.49208 125.23604 128.97998 132.72394 138.21667 141.71263 145.71259 151.5397 155.28366 159.02762 162.77156 166.51552 169.85147 172.26744 176.2674 181.64333 186.38727 190.29922 193.77597 195.51996 199.51991 203.59985 205.34383 208.5038 211.99976 214.41573 218.32767 220.74364 225.29718 227.45715 231.36911 235.50186 237.91783 241.91777 247.35051 250.51047 254.00642 256.42239 260.08633 264.16629 267.98706 270.40302 272.147 275.22696 278.72293 281.13889 282.88287 286.7948 292.53473 296.44669 300.35864 303.51862 305.26257 309.17453 312.0065 315.67044 319.7504 323.03595 327.03592 330.69986 334.77982 338.44376 344.52368 348.43564 352.43561 354.17957 359.03632 362.53226 366.53223"
         y="0"
         sodipodi:role="line"
         id="tspan256">Whilesomespeechesweredeliveredin2016and2017,theDPIindicatorsforthecategorizationofclosed,hegemonicand</tspan><tspan
         x="3.3447583 6.5047188 10.41667 16.496593 20.576542 24.240498 26.656467 28.400446 30.816414 32.560394 36.056351 41.385883 43.801853 47.465805 51.545757 53.289734 59.369659 63.033611 67.521553 69.681526 72.841492 75.001465 78.293419 81.869377 85.365334 89.445282 91.189262 96.548393 100.96434 106.41307 108.15705 113.89618 116.31215 120.3121 125.68803 129.26398 133.26393 137.34389 141.42383 143.16782 146.83177 152.91168 156.47244 160.4724 162.88837 166.38432 169.85228 175.76421 179.26016 181.67613 185.34009 187.75606 189.50003 192.99599 194.73996 198.59592 202.67587 208.29019 212.20215 216.2021 217.94608 223.03001 227.02997 231.02991 233.44588 235.18987 238.62022 242.36417 246.10812 249.85208"
         y="8.9574881"
         sodipodi:role="line"
         id="tspan258">competitiveregimes(cf.TableA1intheSupplementalMaterial)goonlyuntil2015</tspan></text>
<text
       transform="matrix(1,0,0,-1,317.93291,104.99521)"
       style="font-variant:normal;font-weight:normal;font-size:7.99989986px;font-family:'AdvOT5fcf1b24 20';-inkscape-font-specification:'AdvOT5fcf1b24 20';writing-mode:lr-tb;fill:#000000;fill-opacity:1;fill-rule:nonzero;stroke:none"
       id="text260"><tspan
         x="0"
         y="0"
         id="tspan262">–</tspan></text>
<text
       transform="matrix(1,0,0,-1,323.65924,104.99521)"
       style="font-variant:normal;font-weight:normal;font-size:7.99989986px;font-family:AdvOT5fcf1b24;-inkscape-font-specification:AdvOT5fcf1b24;writing-mode:lr-tb;fill:#000000;fill-opacity:1;fill-rule:nonzero;stroke:none"
       id="text264"><tspan
         x="0 3.4159572 7.0799117 9.4958811 12.81264 16.81259 20.724541 24.724491 30.047625 33.959576 37.814728 40.230698 44.230648 49.606579 53.102535 57.102486 59.518456 63.430408 66.59037 69.00634 72.502296 74.918266 76.662239 81.467781 84.627739 88.539696 92.539642 96.539597 98.955566 101.37154 103.11551 106.77946"
         y="0"
         sodipodi:role="line"
         id="tspan266">yet,noneoftheautocraticcountries</tspan><tspan
         x="-257.66797 -255.924 -249.50407 -247.0881 -243.08817 -241.34418 -236.18105 -232.68509 -228.68513 -225.18918 -223.44521 -220.02925 -217.19728 -215.45331 -210.27257 -207.44061 -205.69662 -201.61668 -197.61673"
         y="9.014287"
         sodipodi:role="line"
         id="tspan268">inthisanalysissigni</tspan></text>
<text
       transform="matrix(1,0,0,-1,127.78649,95.980925)"
       style="font-variant:normal;font-weight:normal;font-size:7.99989986px;font-family:'AdvOT5fcf1b24 +fb';-inkscape-font-specification:'AdvOT5fcf1b24 +fb';writing-mode:lr-tb;fill:#000000;fill-opacity:1;fill-rule:nonzero;stroke:none"
       id="text270"><tspan
         x="0"
         y="0"
         id="tspan272">ﬁ</tspan></text>
<text
       transform="matrix(1,0,0,-1,131.69844,95.980925)"
       style="font-variant:normal;font-weight:normal;font-size:7.99989986px;font-family:AdvOT5fcf1b24;-inkscape-font-specification:AdvOT5fcf1b24;writing-mode:lr-tb;fill:#000000;fill-opacity:1;fill-rule:nonzero;stroke:none"
       id="text274"><tspan
         x="0 3.1599605 6.6559167 10.655867 13.071836 14.815815 20.579742 23.739704 27.739653 31.235609 35.235561 39.31551 42.979462 49.379383 53.459332 57.459282 59.875252 61.619228 65.619179 72.056702 75.800652 79.544609 83.288559"
         y="0"
         sodipodi:role="line"
         id="tspan276">cantlychangedduring2015</tspan></text>
<text
       transform="matrix(1,0,0,-1,218.72135,95.980925)"
       style="font-variant:normal;font-weight:normal;font-size:7.99989986px;font-family:'AdvOT5fcf1b24 20';-inkscape-font-specification:'AdvOT5fcf1b24 20';writing-mode:lr-tb;fill:#000000;fill-opacity:1;fill-rule:nonzero;stroke:none"
       id="text278"><tspan
         x="0"
         y="0"
         id="tspan280">–</tspan></text>
<text
       transform="matrix(1,0,0,-1,222.6901,95.980925)"
       style="font-variant:normal;font-weight:normal;font-size:7.99989986px;font-family:AdvOT5fcf1b24;-inkscape-font-specification:AdvOT5fcf1b24;writing-mode:lr-tb;fill:#000000;fill-opacity:1;fill-rule:nonzero;stroke:none"
       id="text282"><tspan
         x="0 3.7439532 7.4879065 11.231859 14.975813"
         y="0"
         sodipodi:role="line"
         id="tspan284">2017.</tspan></text>
<text
       transform="matrix(1,0,0,-0.88877963,59.9811,90.5386)"
       style="font-variant:normal;font-weight:normal;font-size:5.99980021px;font-family:AdvOT5fcf1b24;-inkscape-font-specification:AdvOT5fcf1b24;writing-mode:lr-tb;fill:#000000;fill-opacity:1;fill-rule:nonzero;stroke:none"
       id="text286"><tspan
         x="0"
         y="0"
         id="tspan288">b</tspan></text>
<text
       transform="matrix(1,0,0,-1,63.0425,86.9669)"
       style="font-variant:normal;font-weight:normal;font-size:7.99989986px;font-family:AdvOT5fcf1b24;-inkscape-font-specification:AdvOT5fcf1b24;writing-mode:lr-tb;fill:#000000;fill-opacity:1;fill-rule:nonzero;stroke:none"
       id="text290"><tspan
         x="0 3.5759554 7.0719118 11.15186 12.895839 18.935762 23.351707 29.480431 31.224409 37.644329 40.060299 44.060249 50.060173 53.636131 57.636078 61.71603 65.795975 67.539955 71.203911 77.283836 80.947784 84.947739 87.363708 90.766068 94.904411 100.81634 104.31229 106.72826 110.39222 112.80819 114.55217 118.04813 122.17368 126.25362 128.66959 132.58154 136.0775 137.82147 141.90143 145.47418 150.74692 153.16289 157.16284 163.16277 165.99472 169.90668 173.90663 176.3226 179.48256 183.14651 188.33444 192.2464 196.78154 199.19751 203.19746 209.25418 212.08615 216.16609 219.83005 223.494 226.65396 230.65392 234.31787 237.14984"
         y="0"
         sodipodi:role="line"
         id="tspan292">TableA2intheSupplementalMaterialprovidesthesourcesofthespeeches.</tspan></text>
<text
       transform="matrix(1,0,0,-0.88877963,59.9811,81.5244)"
       style="font-variant:normal;font-weight:normal;font-size:5.99980021px;font-family:AdvOT5fcf1b24;-inkscape-font-specification:AdvOT5fcf1b24;writing-mode:lr-tb;fill:#000000;fill-opacity:1;fill-rule:nonzero;stroke:none"
       id="text294"><tspan
         x="0"
         y="0"
         id="tspan296">c</tspan></text>
<text
       transform="matrix(1,0,0,-1,62.3622,77.9527)"
       style="font-variant:normal;font-weight:normal;font-size:7.99989986px;font-family:AdvOT5fcf1b24;-inkscape-font-specification:AdvOT5fcf1b24;writing-mode:lr-tb;fill:#000000;fill-opacity:1;fill-rule:nonzero;stroke:none"
       id="text298"><tspan
         x="0 3.5759554 7.5759053 13.323033 16.482994 19.978951 22.810915 26.474869 31.408407 35.320358 39.572304 43.148262 46.644218 50.644165 54.724117 58.564068 62.980011 65.395981 68.891937 72.971886 74.715866 80.277397 83.773354 87.7733 93.940422 98.60437 101.68433 105.76427 109.42823 112.84419 114.58817 117.42014 119.83611 123.33206 129.37358 131.11755 135.11751 138.27747 140.02145 144.02139 148.10135 153.86528 157.36124 159.10521 161.93718 167.92509 170.75706 174.42102 177.91698 181.58093 183.9969 187.49286 191.3392 194.17117 198.25113 201.91507 205.57903 208.73898 212.73894 216.40289 221.27324 225.18518 229.43713 231.8531 235.85306 241.62578 245.62573 249.28969 256.76318 258.50717 262.17111 265.66708 269.74704 273.41098 275.82697 280.74448 283.57645 285.32043 289.32037 292.48035 298.20587 301.94983 305.69379 309.43774 315.27045 318.76642 322.76636 328.9335 332.67743 336.42139 340.16534 346.05487 350.13483 353.79877 356.95874 360.45468 364.45465 367.28662"
         y="0"
         sodipodi:role="line"
         id="tspan300">ThecasesofSaudiArabiaandUzbekistanincludealsoseveralspeechesofthenewleaderssince2015and2016because</tspan><tspan
         x="3.6279547 5.371933 9.0358868 12.531843 16.611792 20.275747 22.691717 25.523682 29.52363 31.267609 37.700329 40.532295 44.532242 47.692204 50.852165 54.516117 57.348083 60.180046 61.924026 65.835976 72.169495 77.585434 81.081383 86.286125 90.286072 94.198021 98.985161 101.14513 105.05708 106.80106 108.54504 112.45699 117.87292 121.53688 127.9552 132.03516 137.81987 140.23584 143.8998 147.97975 149.72372 155.80365 161.80118 164.96114 168.96109 172.45705 176.457 180.53694 184.2009"
         y="8.9574881"
         sodipodi:role="line"
         id="tspan302">leadershipsuccessionwasnotfollowedbyregimechange.</tspan></text>
<text
       transform="matrix(1,0,0,-0.88877963,59.9811,63.4961)"
       style="font-variant:normal;font-weight:normal;font-size:5.99980021px;font-family:AdvOT5fcf1b24;-inkscape-font-specification:AdvOT5fcf1b24;writing-mode:lr-tb;fill:#000000;fill-opacity:1;fill-rule:nonzero;stroke:none"
       id="text304"><tspan
         x="0"
         y="0"
         id="tspan306">d</tspan></text>
<text
       transform="matrix(1,0,0,-1,63.0425,59.9811)"
       style="font-variant:normal;font-weight:normal;font-size:7.99989986px;font-family:AdvOT5fcf1b24;-inkscape-font-specification:AdvOT5fcf1b24;writing-mode:lr-tb;fill:#000000;fill-opacity:1;fill-rule:nonzero;stroke:none"
       id="text308"><tspan
         x="0 3.5759554 7.5759053 13.60623 16.438194 20.518143 24.182098 27.846052 31.006012 35.005962 38.669918 43.880253 47.040211 50.952164 54.44812 58.112072 62.872013 66.871964 70.36792 73.199883 79.279808 83.279762 86.111725 88.943687 92.607643"
         y="0"
         sodipodi:role="line"
         id="tspan310">ThespeechescoverRasmussen</tspan></text>
<text
       transform="matrix(1,0,0,-1,159.53329,59.9811)"
       style="font-variant:normal;font-weight:normal;font-size:7.99989986px;font-family:'AdvOT5fcf1b24 20';-inkscape-font-specification:'AdvOT5fcf1b24 20';writing-mode:lr-tb;fill:#000000;fill-opacity:1;fill-rule:nonzero;stroke:none"
       id="text312"><tspan
         x="0"
         y="0"
         id="tspan314">’</tspan></text>
<text
       transform="matrix(1,0,0,-1,161.12047,59.9811)"
       style="font-variant:normal;font-weight:normal;font-size:7.99989986px;font-family:AdvOT5fcf1b24;-inkscape-font-specification:AdvOT5fcf1b24;writing-mode:lr-tb;fill:#000000;fill-opacity:1;fill-rule:nonzero;stroke:none"
       id="text316"><tspan
         x="0 5.2159348 6.9599128 8.5358934 12.529444 14.273421 16.017399 20.01255 23.508507 27.508455 33.958775 35.702755 37.446732 39.190712 43.142662 46.30262 49.798576 53.878525 55.622505 59.622456 63.286407 68.087952 70.247925 73.991875 77.735825 81.479782"
         y="0"
         sodipodi:role="line"
         id="tspan318">sI.,II.andIII.cabinet(2009</tspan></text>
<text
       transform="matrix(1,0,0,-1,246.32981,59.9811)"
       style="font-variant:normal;font-weight:normal;font-size:7.99989986px;font-family:'AdvOT5fcf1b24 20';-inkscape-font-specification:'AdvOT5fcf1b24 20';writing-mode:lr-tb;fill:#000000;fill-opacity:1;fill-rule:nonzero;stroke:none"
       id="text320"><tspan
         x="0"
         y="0"
         id="tspan322">–</tspan></text>
<text
       transform="matrix(1,0,0,-1,250.29856,59.9811)"
       style="font-variant:normal;font-weight:normal;font-size:7.99989986px;font-family:AdvOT5fcf1b24;-inkscape-font-specification:AdvOT5fcf1b24;writing-mode:lr-tb;fill:#000000;fill-opacity:1;fill-rule:nonzero;stroke:none"
       id="text324"><tspan
         x="0 3.7439532 7.4879065 11.231859 17.347784 20.843739 24.843689 31.294008 35.037964 38.781914 42.525867"
         y="0"
         sodipodi:role="line"
         id="tspan326">2011and2015</tspan></text>
<text
       transform="matrix(1,0,0,-1,296.55958,59.9811)"
       style="font-variant:normal;font-weight:normal;font-size:7.99989986px;font-family:'AdvOT5fcf1b24 20';-inkscape-font-specification:'AdvOT5fcf1b24 20';writing-mode:lr-tb;fill:#000000;fill-opacity:1;fill-rule:nonzero;stroke:none"
       id="text328"><tspan
         x="0"
         y="0"
         id="tspan330">–</tspan></text>
<text
       transform="matrix(1,0,0,-1,300.52833,59.9811)"
       style="font-variant:normal;font-weight:normal;font-size:7.99989986px;font-family:AdvOT5fcf1b24;-inkscape-font-specification:AdvOT5fcf1b24;writing-mode:lr-tb;fill:#000000;fill-opacity:1;fill-rule:nonzero;stroke:none"
       id="text332"><tspan
         x="0 3.7439532 7.4879065 11.231859 14.975813 17.135786"
         y="0"
         sodipodi:role="line"
         id="tspan334">2017).</tspan></text>
</g></svg>